<?xml version="1.0" encoding="UTF-8"?>
<svg id="SVG_WHITE" xmlns="http://www.w3.org/2000/svg" viewBox="0 0 200 200">
  <defs>
    <style>
      .cls-1 {
        fill: #c9ced3;
      }

      .cls-2 {
        fill: #fff;
      }

      .cls-3 {
        fill: #f3f4f5;
      }

      .cls-4 {
        fill: #acb5c1;
      }

      .cls-5 {
        fill: #bac3ce;
      }

      .cls-6 {
        fill: #9da4b4;
      }
    </style>
  </defs>
  <g id="_Слой_9_копия_" data-name="Слой 9 (копия)">
    <g>
      <path class="cls-2" d="M108.31,48.95c-5.29.14-10.63-.1-15.91,0v7.54h37.27c.37,0,3,1.89,3.34,2.52.56,1.03,1.17,4.12,1.28,5.42.84,9.42-1.18,18.71-.86,28.08h43.13c.37,0,3,1.89,3.34,2.52.56,1.03,1.17,4.12,1.28,5.42,1.62,18.29.07,42.66-.88,61.14-.16,3.16.81,12.71-.99,14.51-.62.62-2.6.95-3.57,1.04-17.86,1.61-38.04-1.28-56.17,0-1.83.39-5.41-2.26-5.41-3.8v-16.33h-21.77v16.33c0,1.54-3.58,4.19-5.41,3.8l-64.56.02c-3.46-.51-5.76-2.54-5.44-6.29l.22-134.72c.98-5.45,9.57-3.63,13.65-3.9,1.65-.11,3.1-.82,4.96-.9,15.14-.61,30.53.53,45.68.04.35-2.21-.84-8.59.79-9.68,14.54-1.15,29.31.08,43.93.42.83.12,1.31,3.02,1.37,3.78.62,6.96-.52,14.78-.02,21.85.22.86-.6.96-.85,1.21-3.36.58-6.42-.69-9.59-.87-3.29-.19-5.78.79-8.83.87ZM122.55,47.28c.84-.02,1.68.02,2.51,0v-23.45h-39.78c-1.87,0-1.17,6.79-1.26,8.38,10.69-1.58,8.05,7.01,8.38,14.24.03.56-.03,1.12,0,1.67,4.5-.2,8.88-.71,13.4-.84,3.61-.1,7.27.01,10.89,0,1.95,0,3.92.05,5.86,0ZM89.89,41.42c2.88-2.87-.94-7.67-4.66-7.49-19.68.96-40.78-1.44-60.28-.09-4.96.34-6.33,2.38-5.41,7.58.21,1.21,1.12.8,2.07.86,21.62,1.31,44.49-1.06,66.25.02,1.26.22,1.38-.23,2.03-.88ZM19.54,43.93l.1,120.92c.13.39.34.75.69.98,1.34.9,21.48.36,25.17.37,13.65.04,28.85.84,42.32.02.86-.05,2.01.32,2.07-.86V43.93H19.54ZM92.4,66.54h38.1c2.65,0,.93-8.38-2.51-8.38h-35.59v8.38ZM131.76,68.22h-39.36v9.21h30.57c.22,0,1.22,1.19,2.09.84v14.24h6.7v-24.29ZM101.61,79.94v26.8h12.56c-.13-8.1-1.75-15.72,9.21-14.24v-12.57c-.78-1.43-3.22-.82-4.61-.84-3.07-.03-6.14-.01-9.21,0-2.41,0-6.02-.7-7.96.84ZM99.94,79.94h-7.54v26.8h7.54v-26.8ZM116.68,100.88h60.72c1.83,0,1.25-4.39-.39-5.48h-59.54c-1.35.89-.66,3.89-.79,5.48ZM178.66,102.56h-61.97c-.14,5.43.19,10.92.02,16.35-.38,12.51.41,25.03.02,37.71-.11,3.58-1.92,6.61-.04,10.43h61.97v-64.49ZM114.17,108.42h-21.77v8.38h21.77v-8.38ZM114.17,119.31h-21.77v26.8h21.77v-26.8ZM114.17,148.62h-21.77v6.7h21.77v-6.7ZM89.89,167.88H19.54c-.01,2.39-.59,4.82,1.66,6.29,3.97.05,8.34,1.1,12.12,1.28,15.06.72,34.62.74,49.43-.9,5.98-.66,7.87,1.98,7.14-6.68ZM178.66,169.56h-61.97c-.45,3.45.22,5.24,3.8,5.83,16.48-.74,33.9,1.08,50.26.07,1.05-.06,6.69-.77,6.99-.96.45-.3,1.28-4.62.93-4.94Z"/>
      <path class="cls-2" d="M156.46,84.13c-2.57-2.31-1.83-6.54-5.91-6.71-1.87-.08-3.38,1.91-4.46-.51.62-4.26-1.31-23.13.28-25.5.76-1.13,6.15-1.04,7.59-.79,2.68.45,2.59,2.98,4.13,4.24,2.94,2.4,6.56.51,10.12.77,1.42.1,2.69.72,4.14.88s7.14-.64,7.14,1.23v25.13c0,.09-1.17,1.26-1.26,1.26h-21.77ZM176.98,58.17h-18.84c-1.01,0-3.02-4.14-3.74-4.64-1.25-.85-3.55-.23-5.05-.39v22.61c5.73-1.2,5.9,2.24,8.79,5.86h18.84v-23.45Z"/>
      <path class="cls-2" d="M174.47,41.83c-.03.22-1,2.08-1.36,2.14l-8.69-.04.83,7.53-12.14-7.54h-18.01v-22.61h38.1c.09,0,1.26,1.17,1.26,1.26,0,5.53.78,14.25,0,19.26ZM171.96,42.25v-18.01c0-.09-1.17-1.26-1.26-1.26h-33.92v19.26h18.01c1.52,0,5.13,5.24,7.53,5.03l-.41-5.03h10.05Z"/>
      <path class="cls-3" d="M89.89,43.93v121.44l-44.39.84c-3.69-.01-23.83.52-25.17-.37-.35-.23-.56-.59-.69-.98l-.1-120.92h70.35ZM85.7,52.3H23.73v49c0,.09,1.17,1.26,1.26,1.26h59.46c.09,0,1.26-1.17,1.26-1.26v-49ZM24.56,132.71c.06.37-.06.67.44.79l59.34-.06c.48-.08.37-.54.51-.73,2.25-2.93.05-18.84.84-23.45H24.56c.84,7.09-1.14,16.71,0,23.45ZM42.99,139.41h-18.42v17.59h18.42v-17.59ZM84.02,140.24h-36.01v1.68h36.01v-1.68ZM84.86,146.11h-35.59c-.14,0-1.33,1.13-1.26,1.68h36.85v-1.68ZM73.97,151.97h-25.96v1.68h25.96v-1.68Z"/>
      <rect class="cls-5" x="92.4" y="119.31" width="21.77" height="26.8"/>
      <path class="cls-5" d="M89.89,41.42H19.54c-.92-5.19.45-7.23,5.41-7.58,19.5-1.35,40.61,1.05,60.28.09,3.72-.18,7.53,4.62,4.66,7.49ZM84.02,36.39c-2.88-.33-4.65.24-4.18,3.35,2.88.33,4.65-.24,4.18-3.35Z"/>
      <path class="cls-5" d="M89.89,167.88c.73,8.66-1.16,6.01-7.14,6.68-14.8,1.64-34.37,1.62-49.43.9-3.77-.18-8.15-1.23-12.12-1.28-2.25-1.47-1.67-3.9-1.66-6.29h70.35Z"/>
      <path class="cls-3" d="M131.76,68.22v24.29h-6.7v-14.24c-.87.35-1.88-.84-2.09-.84h-30.57v-9.21h39.36Z"/>
      <path class="cls-5" d="M123.38,79.94v12.57c-10.96-1.48-9.34,6.13-9.21,14.24h-12.56v-26.8h21.77Z"/>
      <path class="cls-4" d="M92.4,66.54v-8.38h35.59c3.45,0,5.16,8.38,2.51,8.38h-38.1Z"/>
      <rect class="cls-5" x="92.4" y="79.94" width="7.54" height="26.8"/>
      <rect class="cls-3" x="92.4" y="108.42" width="21.77" height="8.38"/>
      <rect class="cls-3" x="92.4" y="148.62" width="21.77" height="6.7"/>
      <path class="cls-2" d="M89.89,41.42c-.65.65-.77,1.1-2.03.88-21.76-1.08-44.63,1.29-66.25-.02-.95-.06-1.85.35-2.07-.86h70.35Z"/>
      <path class="cls-2" d="M89.89,165.37c-.06,1.18-1.21.81-2.07.86-13.46.81-28.66.02-42.32-.02l44.39-.84Z"/>
      <path class="cls-2" d="M123.38,79.94h-21.77c1.93-1.53,5.55-.83,7.96-.84,3.07,0,6.14-.03,9.21,0,1.39.01,3.83-.6,4.61.84Z"/>
      <g>
        <path class="cls-2" d="M126.73,48.95c-.1.1-.01.59-.52.72-2.77.7-9.94.18-13.29.12-1.57-.03-3.45.54-4.61-.84,3.06-.08,5.54-1.06,8.83-.87,3.17.18,6.23,1.45,9.59.87Z"/>
        <path class="cls-5" d="M92.4,46.44c-.33-7.22,2.31-15.81-8.38-14.24.09-1.59-.61-8.38,1.26-8.38h39.78v23.45c-.83.02-1.68-.03-2.51,0l-.53-.7c-1.58-.28-3.23-.28-4.81,0l-.53.7c-3.61.01-7.28-.1-10.89,0,.12-.72-.63-.78-1.23-.84-3.91-.35-8.21.26-12.17,0Z"/>
        <path class="cls-2" d="M105.8,47.28c-4.52.13-8.9.63-13.4.84-.03-.55.03-1.12,0-1.67,3.96.25,8.26-.36,12.17,0,.61.06,1.36.12,1.23.84Z"/>
        <path class="cls-2" d="M122.55,47.28c-1.95.05-3.92,0-5.86,0l.53-.7c1.58-.28,3.23-.28,4.81,0l.53.7Z"/>
      </g>
      <path class="cls-4" d="M176.98,58.17v23.45h-18.84c-2.89-3.62-3.06-7.06-8.79-5.86v-22.61c1.5.16,3.81-.46,5.05.39.72.49,2.73,4.64,3.74,4.64h18.84ZM175.31,66.54h-19.26c-.07,1.77-.39,1.6,1.25,1.68,3.07.15,6.18-.18,9.25-.02,2.78.14,8.4,3.02,8.77-1.65ZM175.31,71.57h-16.75v2.51h16.75v-2.51Z"/>
      <path class="cls-5" d="M171.96,42.25h-10.05s.41,5.03.41,5.03c-2.4.21-6.02-5.03-7.53-5.03h-18.01v-19.26h33.92c.09,0,1.26,1.17,1.26,1.26v18.01Z"/>
      <path class="cls-2" d="M42.99,139.41v17.59h-18.42v-17.59h18.42ZM41.31,141.08h-15.07v14.24h15.07v-14.24Z"/>
      <path class="cls-2" d="M84.86,146.11v1.68h-36.85c-.07-.54,1.11-1.68,1.26-1.68h35.59Z"/>
      <rect class="cls-2" x="48.01" y="140.24" width="36.01" height="1.68"/>
      <rect class="cls-2" x="48.01" y="151.97" width="25.96" height="1.68"/>
      <path class="cls-2" d="M84.02,36.39c.47,3.1-1.31,3.68-4.18,3.35-.47-3.1,1.31-3.68,4.18-3.35Z"/>
      <rect class="cls-2" x="158.56" y="71.57" width="16.75" height="2.51"/>
      <path class="cls-2" d="M175.31,66.54c-.37,4.67-5.99,1.79-8.77,1.65-3.07-.15-6.18.17-9.25.02-1.63-.08-1.31.1-1.25-1.68h19.26Z"/>
      <g>
        <path class="cls-2" d="M85.7,52.3v49c0,.09-1.17,1.26-1.26,1.26H24.98c-.09,0-1.26-1.17-1.26-1.26v-49h61.97ZM79.84,54.82c-4.03-.18-8.13.22-12.17.02-10.98-.54-22.41-1.62-33.52-.9-1.5.1-3.42.22-4.56,1.29l23.43,19.28h3.37c7.69-6.77,16.18-12.5,23.44-19.69ZM26.24,55.65v42.71l25.97-20.52-3.77-4.6-22.19-17.59ZM83.19,56.49l-26.8,20.11,26.8,21.77v-41.88ZM80.67,100.04c-3.01-2.64-24.58-21.07-26.24-20.84l-25.68,20.84h51.92Z"/>
        <polygon class="cls-1" points="26.24 55.65 48.43 73.24 52.2 77.84 26.24 98.37 26.24 55.65"/>
        <polygon class="cls-5" points="83.19 56.49 83.19 98.37 56.39 76.6 83.19 56.49"/>
        <path class="cls-5" d="M79.84,54.82c-7.26,7.2-15.75,12.92-23.44,19.69h-3.37s-23.43-19.27-23.43-19.27c1.14-1.08,3.07-1.2,4.56-1.29,11.11-.72,22.53.36,33.52.9,4.03.2,8.13-.19,12.17-.02Z"/>
        <path class="cls-5" d="M80.67,100.04H28.75l25.68-20.84c1.66-.23,23.23,18.2,26.24,20.84Z"/>
      </g>
      <g>
        <path class="cls-2" d="M24.56,132.71c-1.14-6.74.84-16.36,0-23.45h61.14c-.79,4.61,1.41,20.52-.84,23.45H24.56ZM26.24,130.19c0,.09-1.52.13-.02,1.28l56.53.35c.51-.12.38-.43.44-.79.98-5.79-.72-14,0-20.1H26.24c-.36,6.28.48,13.05,0,19.26Z"/>
        <path class="cls-2" d="M84.86,132.71c-.15.19-.03.65-.51.73l-59.34.06c-.51-.12-.38-.43-.44-.79h60.3Z"/>
        <path class="cls-4" d="M26.24,130.19c.48-6.22-.36-12.98,0-19.26h56.95c-.72,6.1.98,14.31,0,20.1l-56.95-.84Z"/>
        <path class="cls-2" d="M83.19,131.03c-.06.37.06.67-.44.79l-56.53-.35c-1.5-1.15.02-1.19.02-1.28l56.95.84Z"/>
      </g>
      <rect class="cls-5" x="26.24" y="141.08" width="15.07" height="14.24"/>
      <g>
        <path class="cls-3" d="M178.66,102.56v64.49h-61.97c-1.88-3.83-.07-6.85.04-10.43.39-12.68-.4-25.2-.02-37.71.17-5.44-.17-10.92-.02-16.35h61.97ZM146.83,124.33v-15.49c0-.09-1.17-1.26-1.26-1.26h-24.29c-.09,0-1.26,1.17-1.26,1.26v15.49h26.8ZM174.47,125.17v-16.33c0-.09-1.17-1.26-1.26-1.26h-24.71v16.75c8.54,1.49,17.3.62,25.96.84ZM174.47,129.36h-53.18c-.09,0-1.26,1.17-1.26,1.26v30.15c0,.09,1.17,1.26,1.26,1.26h53.18v-32.66Z"/>
        <path class="cls-4" d="M116.68,100.88c.13-1.59-.56-4.59.79-5.49h59.54c1.63,1.1,2.22,5.49.39,5.49h-60.72Z"/>
        <path class="cls-4" d="M178.66,169.56c.35.32-.48,4.64-.93,4.94-.29.2-5.93.9-6.99.96-16.36,1.01-33.78-.81-50.26-.07-3.58-.59-4.25-2.38-3.8-5.83h61.97Z"/>
        <path class="cls-2" d="M174.47,129.36v32.66h-53.18c-.09,0-1.26-1.17-1.26-1.26v-30.15c0-.09,1.17-1.26,1.26-1.26h53.18ZM168.61,131.87h-41.87c.09,1.04,2.15,1.81,3.09,2.35,5.85,3.37,11.84,6.43,17.43,10.25l21.35-12.6ZM122.55,159.51c2.6-1.91,21.75-12.47,21.77-13.82-6.12-4.23-12.52-8.31-19-11.97-.94-.53-1.52-1.27-2.76-1.01v26.8ZM171.96,132.71l-21.77,12.98c.03,1.43,19.32,11.53,21.77,13.82v-26.8ZM168.61,160.34c-2.17-2.15-5.47-4.11-8.11-5.71-4.29-2.61-8.86-4.97-13.25-7.43-.85,0-12.71,7.38-14.6,8.59s-4.57,2.67-5.92,4.55h41.87Z"/>
        <path class="cls-2" d="M174.47,125.17c-8.66-.22-17.42.65-25.96-.84v-16.75h24.71c.09,0,1.26,1.17,1.26,1.26v16.33ZM168.61,110.09h-15.07l5.25,3.54c1.47.79,3.29,1.06,4.8.24l5.02-3.77ZM158.56,115.13c-1.88.55-7.55-5.11-8.37-4.19v10.05c3.05-.05,4.93-2.76,7.84-4.16.96-.46.57-.8.54-1.69ZM171.95,121.82l-.41-10.89c-2.48,2.03-6.07,3.28-7.96,5.86,1.59-.32,8.06,5.41,8.37,5.03ZM168.61,122.66c-2.86-3.61-6.94-6.73-11.18-3.22l-3.9,3.22h15.07Z"/>
        <path class="cls-2" d="M146.83,124.33h-26.8v-15.49c0-.09,1.17-1.26,1.26-1.26h24.29c.09,0,1.26,1.17,1.26,1.26v15.49ZM140.97,110.09h-15.07l7.82,4.93c2.26-1.63,5.68-2.65,7.26-4.93ZM131.76,116.79l-1.37-1.55-7.84-4.3v10.05c3.62.22,5.66-3.98,9.21-4.19ZM145.16,110.93c-.81-.84-7.99,4.52-9.21,5.44l7.96,5.43c1.59.18,1.19.04,1.25-1.24.14-3.2-.1-6.44,0-9.64ZM125.9,122.66h15.91l-6.11-4.37c-2.98-1.65-7.59,2.29-9.81,4.37Z"/>
        <path class="cls-5" d="M122.55,159.51v-26.8c1.24-.26,1.82.47,2.76,1.01,6.48,3.66,12.89,7.75,19,11.97-.02,1.35-19.17,11.91-21.77,13.82Z"/>
        <path class="cls-5" d="M171.96,132.71v26.8c-2.45-2.29-21.74-12.38-21.77-13.82l21.77-12.98Z"/>
        <path class="cls-5" d="M168.61,160.34h-41.87c1.35-1.88,3.96-3.29,5.92-4.55s13.75-8.59,14.6-8.59c4.39,2.45,8.96,4.81,13.25,7.43,2.64,1.61,5.94,3.56,8.11,5.71Z"/>
        <path class="cls-5" d="M168.61,131.87l-21.35,12.6c-5.59-3.82-11.58-6.88-17.43-10.25-.94-.54-3-1.31-3.09-2.35h41.87Z"/>
        <path class="cls-4" d="M158.56,115.13c.04.89.42,1.23-.54,1.69-2.91,1.41-4.79,4.12-7.84,4.16v-10.05c.82-.92,6.5,4.75,8.37,4.19Z"/>
        <path class="cls-4" d="M171.95,121.82c-.31.38-6.78-5.35-8.37-5.03,1.89-2.57,5.48-3.83,7.96-5.86l.41,10.89Z"/>
        <path class="cls-4" d="M168.61,122.66h-15.07l3.9-3.22c4.24-3.5,8.32-.38,11.18,3.22Z"/>
        <path class="cls-5" d="M168.61,110.09l-5.02,3.77c-1.52.82-3.34.56-4.8-.24l-5.25-3.54h15.07Z"/>
        <path class="cls-6" d="M145.16,110.93c-.1,3.2.14,6.44,0,9.64-.06,1.28.34,1.42-1.25,1.24l-7.96-5.43c1.22-.93,8.4-6.29,9.21-5.44Z"/>
        <path class="cls-4" d="M131.76,116.79c-3.55.21-5.59,4.41-9.21,4.19v-10.05s7.84,4.3,7.84,4.3l1.37,1.55Z"/>
        <path class="cls-4" d="M125.9,122.66c2.22-2.09,6.82-6.02,9.81-4.37l6.11,4.37h-15.91Z"/>
        <path class="cls-5" d="M140.97,110.09c-1.57,2.27-4.99,3.3-7.26,4.93l-7.82-4.93h15.07Z"/>
      </g>
    </g>
  </g>
</svg>