<?xml version="1.0" encoding="UTF-8"?>
<svg id="SVG_WHITE" xmlns="http://www.w3.org/2000/svg" viewBox="0 0 200 200">
  <defs>
    <style>
      .cls-1 {
        fill: #84adc7;
      }

      .cls-2 {
        fill: #fff;
      }

      .cls-3 {
        fill: #f2746a;
      }
    </style>
  </defs>
  <g id="_Слой_35_копия_" data-name="Слой 35 (копия)">
    <g>
      <path class="cls-2" d="M102.85,41.22v14.22h70.16c.86,6.73-3.87,4.2-8.08,4.73-1.34.17-1.63-.5-1.38,1.4,5.89,18.55,13.97,36.49,19.91,55,2.57,8.01,5.53,12.41,1.76,20.75-10.36,22.91-49.21,18.89-53.62-6.65l25.3-70.5h-54.04v106.19h16.59c1.44,0,6.87,3.84,8.1,5.17,1.83,1.98,3.72,7.05,4.69,7.64,2.7,1.64,9.99-.71,12.36.92,3.02,2.08.22,3.85-2.47,4.19-25.57,3.21-57.15-2.2-83.37.1-3.76-.35-4.89-.71-4.26-4.74h14.22c.34,0,1.49-4.34,2.85-6.16,1.23-1.65,7.36-7.11,9-7.11h17.54V60.18h-54.04c5.65,17.74,13.06,34.97,18.98,52.6,3.43,10.23,7.97,16.46,1.91,26.6-9.57,16.01-36.19,17.58-47.41,2.79-7.37-9.71-4.35-14.44-.99-24.64,6.22-18.86,14.18-37.29,20.78-56.03.4-1.8,0-1.16-1.3-1.31-4.41-.5-9.98,2.14-9.03-4.74h71.11v-14.22c0-.24-3.34-.61-4.66-1.5-9.07-6.1-8.97-19.88,1.54-23.9,18.61-7.11,27.11,20.94,7.86,25.4ZM109.29,28.04c0-4.89-3.97-8.86-8.86-8.86s-8.86,3.97-8.86,8.86,3.97,8.86,8.86,8.86,8.86-3.97,8.86-8.86ZM63.03,129.39l-22.74-63.52-22.77,63.52h45.51ZM136.98,129.39h45.51l-23.22-63.53-22.29,63.53ZM62.08,133.18H18.47c4.92,19.64,38.97,19.18,43.61,0ZM174.43,133.18c-10.67-.98-24.06,0-35.08,0-3.67,0,1.37,7.15,2.85,8.53,11.2,10.38,34.34,8.16,39.33-7.57-2.54.9-5.32-.79-7.11-.95ZM126.55,179.64c-.15-3.22-4.34-7.66-7.31-8.33-5.4-1.22-29.49-.83-35.87-.24-5.96.55-7.64,3.35-9.91,8.58h53.09Z"/>
      <path class="cls-3" d="M174.43,133.18c1.78.16,4.56,1.86,7.11.95-5,15.73-28.13,17.96-39.33,7.57-1.48-1.38-6.53-8.53-2.85-8.53,11.02,0,24.41-.98,35.08,0Z"/>
      <path class="cls-1" d="M62.08,133.18c-4.64,19.18-38.7,19.64-43.61,0h43.61Z"/>
      <path class="cls-1" d="M126.55,179.64h-53.09c2.27-5.22,3.95-8.03,9.91-8.58,6.38-.59,30.47-.97,35.87.24,2.97.67,7.16,5.11,7.31,8.33Z"/>
    </g>
  </g>
</svg>