<?xml version="1.0" encoding="UTF-8"?>
<svg id="_Слой_1" data-name="Слой 1" xmlns="http://www.w3.org/2000/svg" viewBox="0 0 200 200">
  <g id="_Слой_10" data-name="Слой 10">
    <g>
      <path d="M183.09,101.75c0,45.89-37.2,83.09-83.09,83.09S16.91,147.64,16.91,101.75,54.11,18.66,100,18.66s83.09,37.2,83.09,83.09ZM103.03,22.69h-4.95v.81h4.95v-.81ZM93.93,25.99c-2.2-.39-8.99-2.05-9.92.41l1.66.82-1.66,1.23,4.35-.19,5.57-2.27ZM116.27,27.63c-.8-2.56-2.98-.9-4.96-.81v.81s4.96,0,4.96,0ZM79.88,30.96l-6-.67c-1.09.58-7.04,2.95-6.4,4.37,2.09,4.6,10.21-1.43,12.4-3.7ZM100.55,30.95l-9.92-.82,6.31,3.05c1.49-.38,4.24.15,3.61-2.23ZM118.74,30.13h-4.13v.81c1.53.53,2.6.53,4.13,0v-.81ZM129.5,32.59l-5.78-2.47c-.64,2.71,4.38,1.61,5.78,2.47ZM123.71,33.42l-.84-2.47-4.13.83c-.66,2.95,3.25,1.27,4.97,1.64ZM93.94,34.27l-6.89-2.31-7.99,3.94c5.68,1.57,8.38,3.78,13.81.21.79-.52,1.49.1,1.06-1.84ZM112.95,34.26c-3.75-1.7-6.44-.22-9.92,1.23,3.35,3.46,8.28,3.92,9.92-1.23ZM134.46,36.75l-4.95-1.66,1.64,2.47-4.13-.41,5.35,2.9,2.08-3.3ZM116.73,35.19l-4.96,2.46.6,1.22,4.96-2.46-.6-1.22ZM97.68,36.06l-4.81,2.71.63,1.12,4.81-2.71-.63-1.12ZM108.82,40.88l-8.62-3.35-2.13,4.16c4.45,1.43,7.38,4.23,10.75-.8ZM65.81,39.23c-2.54.39-4.91-1.28-7.46-.51-2.88.87-11.76,7.99-3.84,8.6l11.3-8.09ZM85.67,39.23l-10.75-.83,7.03,3.83,3.72-3.01ZM122.48,39.49c-.47.02-3.71,2.4-3.72,2.62l6.07,5.32,3.83-4.48c-.09-.34-5.84-3.48-6.19-3.46ZM143.1,41.35c-.58-.69-.98-1.46-1.61-2.11l-4.55,3.7,6.6,5.38.87-6.08c-.06-.57-1.04-.56-1.32-.89ZM71.69,40.11c-1.29,3.82-5.7,5.89-7.88,9.1-.59.87-1.86,2-.48,2.81.68.4,1.5,1.05,2.27,1.15,1.8.23,10.34-7.01,12.61-8.59.33-1.52-5.78-5-6.53-4.47ZM91.45,41.71c-2.42-.98-5.26.21-6.61,2.46,3.25,1.41,4.95.62,6.61-2.46ZM146.86,49.97c-.32-2.5,2.43-6.04-.81-7.45.55,1.94-2.89,7.91.81,7.45ZM65.82,43.36c-.95-.8-8.23,4.87-8.25,5.37-.2,4.25,8.67-3.08,8.25-5.37ZM103.03,45.02c-4.43.66-11.74-5.17-13.23,1.63l7.05,3.31,6.18-4.94ZM112.95,43.36c-1.52-.19-2.43-.05-3.3,1.25v1.22s3.3-.84,3.3-.84v-1.64ZM132.8,43.36c-2.4-1.32-6.44,5.1-5.78,5.78l2.68-1.88,3.1-3.9ZM122.06,51.62l.46-2.5-7.37-3.99-2.17,1.94c1.22,1.24,7.83,5.57,9.08,4.55ZM85.66,46.67c-5.93-2.66-10.95,4.84-15.7,7.85.01.67,5.38,3.75,6.59,2.53l9.1-10.38ZM129.5,51.61l9.49,5.81,2.74-6.94-6.74-4.52-5.5,5.65ZM152.65,54.93c-.17-3.28,1.1-6.95-2.06-9.08-2.75,2.98-1.34,7.61,2.06,9.08ZM52.58,49.15l-4.88-1.61c-.86,1.99-3.55,5.74-.1,6.16l4.97-4.55ZM94.76,51.63l-7.7-3.25-9.66,10.67,6.86,3.23,10.51-10.65ZM107.17,49.96c-1.77-3.46-5.76-.84-7.43,1.25l2.9,1.87,4.53-3.12ZM104.69,54.12l11.28,8.19c1.73.32,4.83-5.56,6.06-6.97l-11.3-6.06-6.04,4.84ZM38.31,49.77l-3.3,3.3.84.84,3.3-3.3-.84-.84ZM143.55,60.72c.03-3.18,3.54-6.27.42-9.09-.75,2.68-5.48,8.64-.42,9.09ZM156.78,57.41c-.2-1.45.06-5.24-1.64-5.79.04,1.97-.71,4.95,1.64,5.79ZM166.71,65.68l-2.14-7.36-5.29-6.69.41,9.09,7.02,4.97ZM43.47,59.06c.32-2.06,3.2-3.86.43-5.77-1.76,2.13-4.93,5.34-.43,5.77ZM56.72,53.28c-3.37-2.2-12.53,6.85-11.57,8.25,6.27,4.71,9.65-3.01,11.57-8.25ZM126.19,55.75c3.64.81,6.12,4.61,9.38,5.95.98.4,1.92.83,2.19-.57.38-1.96-7.23-6.37-8.83-7.73l-2.74,2.36ZM97.03,54.23c-3.06.74-7.88,7.28-10.51,9.39,5.37,7.81,9.29-4.41,14.02-7.44-1.03-1.12-1.8-2.36-3.51-1.95ZM63.33,55.77c-6.93-3.46-6.66,5.59-11.56,8.67l2.05,2.05,9.51-10.73ZM151.83,67.33c1.46-5.62.68-7.18-3.72-10.73-4.44,4.1-1.09,9.19,3.72,10.73ZM93.11,68.98l12,7.26,9.49-10.96-12.75-7.91-8.73,11.62ZM136.07,64.1l-11.83-6.75-5.49,7.5,12.83,8.25,4.5-9ZM36.86,58.24c-1.44-.17-4.46,5.15-2.06,4.95.9-.08,2.44-3.74,2.06-4.95ZM72.43,60.73l-6.91-2.36-7.96,8.56c.01.8,7.07,4.28,8.52,3.78l6.35-9.97ZM38.54,59.9l-1.69,4.22,1.99.79,1.69-4.22-1.99-.79ZM77.66,68.41c.52-.7,2.55-.7,2.21-2.3l-5.31-3.72-6.94,9.51,5.16,3.69c1.17-.27,3.94-5.91,4.87-7.18ZM48.45,65.7l-5.29-2.44-3.8,5.72c4.81,3.76,6.8,1.8,9.09-3.27ZM156.79,63.2h-2.45c-.95,3.83-1.56,5.76,2.05,8.27l.41-8.27ZM31.92,64.04c.45.6-5.25,6.86-2.08,6.59.98-.08,4.66-5.76,2.08-6.59ZM117.51,66.54l-9.42,11.14,15.11,10.26,6.94-10.28c-3.44-4.6-8.32-7.47-12.62-11.12ZM137.78,66.51c.42,1.47-6.37,8.43-2.89,9.09,1.67.32,6.7-8.18,2.89-9.09ZM150.92,69.94l-5.31-3.44-2.04,1.68,6.2,5.77,1.16-4.01ZM47.95,74.3c1.65-1.56,3.18-3.11,4.59-4.9l-2.02-2.05-4.54,7.85c1.51,1.74,1.53-.49,1.97-.9ZM75.11,80.43c.09.14,2.71,1.64,2.87,1.67,1.45.25,10.41-12.09,9.8-13.12-.77-.58-1.79-1.39-2.73-1.53-3-.43-11.71,10.3-9.94,12.98ZM166.71,79.74c.4-4.54-1.98-9.1-5.77-11.58-1.07,5.76,1.35,8.5,5.77,11.58ZM146.86,83.88l2.41-7.73-7.35-6.33-3.95,7.87,8.89,6.19ZM62.45,74.87l-7.67-4.17-4.43,6.99c.09,1.04,7.21,6.77,8.02,6.19l4.09-9ZM93.85,92.08l9.19-13.55-12.77-7.94-9.48,12.88c1.64,1.47,11.99,9.35,13.06,8.61ZM41.32,74.47c-1.19-1.28-1.79-2.86-3.98-3.05l-2.03,3.66,6.09,4.69,2.08-3.71c-.14-.62-1.61-1.01-2.16-1.59ZM152.67,71.47c-.5,3.89-1.73,5.72,2.06,8.25,2.78-2.7,1.15-6.8-2.06-8.25ZM28.6,72.3h-1.65s0,3.3,0,3.3c1.64-.44,1.86-1.76,1.64-3.3ZM173.32,80.57c.14-2.97-.27-6.78-3.29-8.27-.2,1.57.55,2.92,1.02,4.34.34,1.02,1.08,3.76,2.27,3.92ZM31.08,74.79c-2.2-.46-1.42.57-2.05,1.63-1.85,3.12-3.79,7.05-3.73,10.77,2.2.45,1.42-.56,2.05-1.63,1.75-2.98,3.6-7.26,3.73-10.77ZM45.91,76.56l-3.63,4.53,1.27,1.02,3.63-4.53-1.27-1.02ZM64.07,87.91l4.97-7.76c-2.78-2.99-3.55-3.65-6.06-.35s-5.15,8.04,1.09,8.11ZM33.58,78.09c-1.82,5.12-7.05,13.49.38,16.54l6-12-6.37-4.54ZM165.71,82.4c-.18-.31-4.84-3.29-5.6-4.31.42,5.22.07,8.64,4.54,12.39,1.51.02,1.7-6.99,1.06-8.08ZM131.17,78.92c-.71,3.37-3.32,5.9-4.8,8.87-.42.84-1.62,2.39.25,2.71,1.31.22,6.84-8.88,6.95-9.6.21-1.35-1.19-2.21-2.4-1.98ZM155.06,81.51c-1.58.09-3.36-3.49-4.48-1.78-4.44,8.12,3.18,12.26,4.48,1.78ZM48.46,79.74l-1.28,4.15,7.48,5.76,1.68-3.31-7.88-6.6ZM95.59,94.62l16.13,10.75,9.47-13.65-15.27-10.95-10.32,13.85ZM76.52,83.95l-5.68-2.51-5.03,9.04,5.79,2.14,4.91-8.67ZM174.15,87.19c-.06-1.6.31-5.24-1.64-5.79.04,1.97-.71,4.95,1.64,5.79ZM139.41,99.59l4.85-10.21c-1.64-1.64-6.21-7.77-8.45-7.1l-6.16,10.3,9.76,7.01ZM42.66,83.88c-2.13-.42-1.45.45-2.07,1.61-1.26,2.35-2.57,5.63-2.88,8.31l4.95-9.92ZM157.61,91.32l-.81-7.43-1.59,6.12,2.4,1.32ZM53.33,91.44l-9-5.08c-.08,3.07-5.94,11.15-4.61,13.24l8.72,4.95,4.89-13.11ZM91.46,93.82l-12.71-7.36c-1.27.25-5.68,7.36-5.41,8.49l11.82,7.88,6.31-9.02ZM178.2,86.29l-1.27.22,1.16,6.63,1.27-.22-1.16-6.63ZM164.23,97.11l.45-4.11-5.4-5.81c-.55,4.37,0,8.72,4.95,9.92ZM150.99,93.8c1.4-3.58-.72-4.91-4.13-5.78l4.13,5.78ZM60.02,92.97c.67-6.62-6.84-4.87-1.22,0h1.22ZM170.02,94.63c-.04-1.59.31-5.24-1.64-5.78.2,1.46-.07,5.23,1.64,5.78ZM69.88,95.58l-5.31-3.4c-5.4,3.28,5.62,10.43,5.31,3.4ZM145.65,92.15l-5.26,8.69,4.41,4.53c2.68-4.18,7.9-10.68.85-13.22ZM171.68,92.15v11.58l1.69-9.49-1.69-2.09ZM24.46,92.98c-4.59,1.26-4.8,7.41-1.23,9.92l1.23-9.92ZM156.78,98.77l-2.46-5.79c-1.32,2.96-.2,4.31,2.46,5.79ZM53.38,107.03l4.86-10.48c-2.2-8.09-7.81,6.03-8.14,8.47-.24,1.73,2.04,1.8,3.28,2.01ZM113.79,107.03c2.57,2.99,8.95-8.11,9.98-10.28.56-1.19,1.34-2.26-.48-2.94-1.39-.52-2.83,3.8-4.07,4.18-.25,1.79-6.28,8.04-5.42,9.04ZM170.02,102.07l-2.47-8.26c-.81,2.67-1.58,7.73,2.47,8.26ZM33.55,109.52l1.54-9.36-5.26-4.68c-1.4-.04-1.71,7.72-1.95,9.31l5.66,4.74ZM110.48,107.05l-16.13-10.69-6.13,7.9c-.34,1.85,13.54,10.05,15.24,12.69l7.03-9.9ZM118.75,110.33l9.51,5.6c1.82-.13,6.41-9.09,7.65-10.97l-8.49-8.66-8.68,14.03ZM162.58,106.21c1.47-5.23.25-7.01-4.12-9.93-1.07,4.09-.29,5.69,2.23,8.88.53.66-.03,1.52,1.89,1.05ZM175.81,109.51c-.33-4.25,3.55-9.57.42-13.22-.09,3.65-1.67,7.59-1.65,11.17,0,.71.13,2.3,1.23,2.05ZM84.01,104.57l-11.2-7.43-2.67,2.88,10.26,8.61c1.57.29,3.08-2.82,3.6-4.05ZM61.67,112.83l4.91-11.08-5.29-3.81-5.99,10.35c1.37,2.38,4.04,3.41,6.37,4.54ZM151.82,110.34c1.17-4.62,6.48-9.68-.8-11.58-1.23,5.17-6.77,8.79.8,11.58ZM45.13,115.31l1.3-6.61-8.72-5.79-1.66,7.44c3.77-1.92,2.27.91,3.3,2.02.63.68,5.15,3.4,5.78,2.94ZM68.31,102.9l-4.89,10.35,10.26,6.93,6.13-8.6-11.5-8.68ZM166.71,113.65c.02-3.61,3.47-8.39-.81-10.75-1,3.68-3.51,8.09.81,10.75ZM159.26,116.96c1.51-5.12,3.05-10.21-3.29-12.41l-2.34,7.76,5.63,4.65ZM140.89,104.75l-.84.84,3.3,3.3.84-.84-3.3-3.3ZM87.02,107.1c-.81.14-3.54,2.7-2.63,4.1.47.73,13.45,9.58,14.29,9.78,1.67.4,2.53-.78,3.51-1.98.3-1.36-1.19-1.6-1.87-2.22-1.4-1.28-12.49-9.82-13.3-9.68ZM136.95,107.04l-6.48,10.34,5.23,4.45,6.18-10.27c-.03-1.45-3.94-5.26-4.93-4.52ZM32.56,111.32c-.12-.2-3.31-1.9-3.95-2.63l3.72,4.96c.79-.12.52-1.84.23-2.33ZM111.32,108.69l-5.68,8.82,1.95,2.74,6.87-9.5-3.14-2.05ZM169.19,118.61l1.66-9.91c-1.62.87-2.19,5.37-2.37,7.13-.1.91-.75,2.98.72,2.78ZM150.18,113.64l-4.13-4.13c-.25,3.21.77,5.53,4.13,4.13ZM48.44,116.95c.25-2.25,3.14-4.58.42-6.61.68,2.05-2.76,5.51-.42,6.61ZM44.31,123.57c1.57-7.3-4.11-8.55-9.08-11.57-.23,2.25.04,3.88,1.26,5.76.51.78,7.25,6.5,7.82,5.82ZM127.02,118.63l-10.74-6.63c-.75,4.07-4.79,6.64-6.48,10.35l9.76,7.84,7.46-11.56ZM23.63,121.09l-.81-8.26c.72,2.39-1.78,6.93.81,8.26ZM31.9,123.58c.34-4.75.55-8.31-4.12-10.75.98,3.49.84,8.53,4.12,10.75ZM82.77,112.84c-1.14,1.83-5.98,7.22-5.02,9.08l15.37,8.73,4.59-7.09-14.95-10.72ZM164.23,120.27c.55-2.82,1.6-5.79-1.64-7.44-.07,3.26-3.51,6.73,1.64,7.44ZM174.98,121.09c-.1-2.53,2.18-6.64-.81-8.26l.81,8.26ZM142.72,126.89c.72-3.37,5.91-6.32,4.57-9.87-.2-.54-2.1-3.17-2.5-3.36-1.59-.76-4.39,8.8-6.12,9.64l4.04,3.59ZM57.54,123.58c3.63-7.37-7.68-13.6-6.22-3.31l6.22,3.31ZM155.96,124.4l1.56-5.27-5.67-4.66c-2.8,2.24,3.45,10.62,4.12,9.92ZM73.26,121.11l-10.74-4.97c-1.6,1.67,8.15,6.46,8.68,8.26l2.07-3.28ZM29.42,126.06l-3.29-9.09c-.19,3.79-.69,7.26,3.29,9.09ZM172.5,123.58c-.4-1.44,1-5.47-.81-5.78-.08,2.09-2.02,4.77.81,5.78ZM103.04,119.44l1.22,4.96c2.44-1.7.96-4.02-1.22-4.96ZM35.23,120.27c-.87,5.85,1.04,9.64,6.2,12.39,4.94-6.56-2.26-8.38-6.2-12.39ZM68.29,131.02l1.31-4.96c-1.86-.73-8.11-7.06-9.56-5.79l-1.31,4.98,9.56,5.77ZM127.4,122.28c-4.67,5.52-9.63,9.9-.78,14.5l7.7-11.98-5.23-4.54c-.37.96-1.11,1.33-1.69,2.01ZM151.82,132.67l2.32-6.07-4.38-5.49-4.42,6.89c.23,1.22,5.68,5.26,6.48,4.67ZM159.28,121.09c.28,2.17-1.88,4.21-1.71,6.2.54,6.27,9.44-5.28,1.71-6.2ZM55.06,132.67c1.79-6,.14-8.81-5.78-10.75-2.5,7.01.7,7.25,5.78,10.75ZM91.45,131.86c-3.1.09-14.9-9.56-16.54-8.28-.1.08-.6,2.07-.42,2.49.56,1.36,14.36,10.45,15.22,9.84l1.74-4.06ZM115.44,131.01c-.57-1.1-6.5-7.63-7.44-6.6-.44,3.53,4.55,5.87,7.44,6.6ZM99.74,125.24c.6,1.81-7.97,7.39-3.72,8.26,1.94.4,4.54-5.17,6.18-6.22l-2.45-2.04ZM165.89,125.23c-2.14-.5-1.44.64-2.13,1.56-1,1.35-4.72,6.02-2.82,7.53,1.8,1.43,5.78-7.37,4.95-9.09ZM141.08,128.55l-4.97-1.3-7.44,11.19,4.15,1.31,8.26-11.2ZM55.94,134.25l7.73,4.15c5.93-5.62-1.79-7.93-6.11-10.69l-1.62,6.54ZM69.95,133.48l13.8,8.19c2.39-.79,3.54-2.74,1.4-4.75-3.05-2.87-9.09-5.3-12.31-8.38l-2.89,4.94ZM111.19,140.83l3.36-6-9.88-5.9-4.95,6.21,11.47,5.69ZM168.44,128.22l-2.14,5.1,1.32.56,2.14-5.1-1.32-.56ZM35.54,130.65c-.38-.34-.24-2.25-1.16-.86.34,3.95,5.04,5.25,7.45,7.85.38-3.6-3.95-4.9-6.29-6.98ZM153.48,135.15c.45.53,2.32.96,3.22-.5,1.31-2.12.62-3.19.08-5.29-.75-.58-3.82,5.17-3.3,5.79ZM147.39,133.8c-.56-.58-4.78-3.59-5.09-3.56-.97,2.41-9.64,11.26-8.57,13.1l8.17,3.87c1.88-4.2,9.56-9.2,5.49-13.4ZM53.41,140.11c.87-4.96-.93-7.83-5.78-9.09-.78,4.36.93,8.92,5.78,9.09ZM165.88,142.59c.94-4.15,4.94-7.12,4.96-11.57l-5.4,7.4.44,4.16ZM94.76,134.33c-2.34-.39-5.79,2-2.88,4.13l2.88-4.13ZM159.27,137.63l-.41-3.3-2.06,2.06,1.24,1.23h1.22ZM55.07,135.98c-.8,5.58.31,6.86,4.54,9.91l2.53-4.97-7.07-4.94ZM82.35,143.44c-4.01-1.08-7.42-5.28-11.03-6.77-.89-.37-.82-1.15-1.8.12l-1.14,5.69,11.4,5.8,2.58-4.84ZM108.82,142.61l-10.5-5.68c-1.72-.08-3.81,2.96-1.38,4.72,3.7,2.67,10.62,8.13,11.88.96ZM123.71,140.13l-6.91-3.27-3.8,5.34,6.17,4.39,4.53-6.45ZM149.36,141.77c1.84-.96,3.66-2.67,3.29-4.96-1.31.22-3.98,4.12-3.29,4.96ZM41.83,147.56c.4-4.49.47-8.46-4.95-9.09,1.73,3.76.44,6.98,4.95,9.09ZM52.41,142.76c-.18-.34-4.78-2.56-5.6-3.47-.33,3.35,3.09,4.98,5.37,6.61.8-.34.55-2.56.23-3.14ZM86.5,144.25c1.04,1.09,5.74-4.02,2.88-4.95-1.62-.53-3.33,4.47-2.88,4.95ZM155.98,144.25c3.53-1.99,2.44-5.13-1.66-4.96l1.66,4.96ZM121.23,149.21c2.93.4,4.36-2.5,6.23-4.16l-.46-3.27-5.78,7.43ZM153.47,141.77l-9.08,8.26c1.73.04,3.28,2.17,4.72,2.39,3.21.49,7.69-7.42,4.35-10.65ZM62.51,147.56c1.25,1.38,3.77-3.81,3.3-4.96-1.31.19-3.98,4.2-3.3,4.96ZM92.81,142.65l-1.82,3.28c2.08,1.19,9.37,7.14,11.19,6.22l2.49-2.52-11.86-6.98ZM74.8,154.06l1.41-4.03-8.73-5.77-1.27,5c1.71,1.02,7.04,5.71,8.6,4.8ZM163.4,144.26c-1.35-1.5-5.48,6.06-4.95,7.44,1.61-.39,6-6.26,4.95-7.44ZM47.62,151.69l-2.47-6.6c.13,2.32-1.12,6.64,2.47,6.6ZM58.18,146.91c-.14-.25-3.53-2.24-3.94-1.83l2.9,4.95c1.79.72,1.5-2.33,1.04-3.12ZM117.09,147.58l-5.39-2.49-3.69,2.89c3.6,3.11,7.4,5.89,9.08-.4ZM138.6,149.23l-8.6-4.21-4.61,5.44,7.72,5.29c1.08-.93,6.36-5.33,5.49-6.52ZM50.92,154.17c.33-3.57.32-6.58-3.29-8.27-.2,1.57.55,2.92,1.02,4.34.34,1.01,1.09,3.76,2.27,3.92ZM84.01,147.57l-2.39.1-.92,2.37c.87.67,3.06-1.38,3.31-2.46ZM84.84,152.51c3.53.53,8.24,6.89,11.54,5.42.45-.2,2.39-2.19,2.48-2.58.34-1.51-8.2-6.21-9.63-7.68-1.25-.19-5.07,3.85-4.39,4.84ZM39.56,149.01l-.84.85,3.73,3.69.84-.85-3.73-3.69ZM60.86,149.22c-.7.55-.94,3.77,1.22,3.3,2.56-.56.28-4.49-1.22-3.3ZM152.66,155l2.77.66c3.24-1.33,1.36-3.77,1.36-6.44l-4.12,5.78ZM117.09,154.17l2.88.04,1.25-4.16-4.13,4.13ZM106.36,150.87l-1.33,3.36,4.21,3.98,2.72-3.63-5.6-3.71ZM65,151.7l-.43,3.34,5.68,3.14c5.82-1.84-4.66-7.05-5.25-6.48ZM148.52,155.02l-6.91-3.19-6.31,7.67c5.65,6.02,9.37.03,13.22-4.48ZM55.06,157.48c.3-1.86-.74-3.47-2.46-4.13-.3,1.86.74,3.47,2.46,4.13ZM121.23,156.64c3,.47,6.34,5.37,9.09,2.07-1.48-3.89-7.89-8.4-9.09-2.07ZM93.11,159.98l-10.49-5.67-3.56,2.77,11.33,6.12c.76.17,3.46-2.43,2.72-3.22ZM50.92,162.45c-.42-2.44-.88-6.66-4.13-6.61l4.13,6.61ZM98.07,159.15c-.55.81,4.3,3.76,5.39,3.88l4.52-3.48-5.37-3.53-4.54,3.14ZM67.47,160.79c-1.05-2.32-3.73-3.03-5.78-4.13v4.96s5.78-.83,5.78-.83ZM153.27,157.28l-9.09,9.09.84.84,9.09-9.09-.84-.84ZM77.1,158.44c-3.02,1.72-2.1,2.55.35,4.36,1.14.84,8.47,5.26,9.04,2.52.04-2.26-8.36-7.1-9.39-6.88ZM126.19,161.63c-5.31-2.7-8.1-5.4-12.4.8,2.27.02,5.26,3.88,7.03,3.88,1.01,0,6.28-3.37,5.37-4.68ZM53.4,162.45c.22-1.54,0-2.87-1.64-3.31-.22,1.54,0,2.87,1.64,3.31ZM100.55,164.11l-4.68-2.38-2.75,1.96c1.72.31,6.33,2.46,7.43.42ZM71.93,164.56c-.43-.26-.28-1.38-.72-1.29l-4.56,3.3c5.01,1.84,8.1,5.43,14.05,4.14-.61-2.6-3.88-2.49-5.13-3.33s-1.89-1.73-3.65-2.81ZM117.02,165.88c-3.82-2.44-4.69-3.59-9.02-.94l7.79,4.16,1.22-3.22ZM135.29,165.77l-3.32-.49c-1.04,1.25-8.89,4.35-8.24,5.85,1.38,3.2,8.28-1.99,10.02-3.22.98-.69,2.02-.03,1.55-2.13ZM112.95,170.73l-7.71-3.15-5.51,3.95,7.02,1.72,6.2-2.53ZM69.13,170.71c.62-.44-3.41-3.18-4.13-2.47-.23,2.55,2.08,2.67,4.13,2.47ZM140.25,169.9l-3.63.91-6.29,4.03c3.79.61,7.43-2.31,9.92-4.95ZM87.32,172.38c-2.56-.5-5.23-1.33-6.62,1.64l6.62-1.64ZM119.57,175.69c-2.75.06-5.85,1.01-8.44,1.9-.87.3-2.5.18-2.31,1.39l4.35-.19,6.39-3.11ZM128.67,178.15l-2.7-1.52-8.05,4.01,10.75-2.48ZM106.34,180.65c-1.23-.42-2.02-.5-3.3-.45-.79.03-4.27.1-4.13,1.26l7.43-.81Z"/>
      <rect x="162.37" y="57.07" width="1.24" height="4.81" transform="translate(-7.43 92.04) rotate(-30.86)"/>
    </g>
  </g>
</svg>