<?xml version="1.0" encoding="UTF-8"?>
<svg id="_Слой_1" data-name="Слой 1" xmlns="http://www.w3.org/2000/svg" viewBox="0 0 200 200">
  <defs>
    <style>
      .cls-1 {
        fill: #3b5364;
      }
    </style>
  </defs>
  <g id="_Слой_22" data-name="Слой 22">
    <path class="cls-1" d="M400,0v200h-200V0h200ZM334.76,43.32c1.54-1.94-6.54-6.48-8.06-7.12s-7.24-2.16-9.05-2.6c-10.81-2.66-27.71-3.37-37.98,1.46-6.97,3.27-5.32,8,1,10.95,9.89,4.63,33.83,5.24,42.84-1.3,4.73-3.43,1.35-6.93,1.83-7.46,1.05-1.14,2.14,2.55,3.17,3.35.91.71,2.52,1.21,3.67,1.48-.16,2.3-5.67-2.5-4.79.33.23.74,4.51,1.36,4.8,3.1l-5.48-2.06c-1.06,1.01,5.52,6.06,6.84,4.82-1.51-2.61.69-1.91.75-2.47.07-.77-.67-1.57-.69-2.06-.02-.37,1.01-.25,1.15-.42ZM274.67,36.9l-4.27,1.1.22.85,4.27-1.1-.22-.85ZM266.44,45.52c.1-.02.89.73,2.05.4.3-.09,5.27-2.93,5.48-3.17.07-.09.26-1.45-.35-1.38l-1.71-.33,2.07-2.07-3.44.34.69,1.37c-1.07.15-4.1.86-4.8,1.39-.12-.31.08-.95,0-1.37-2.04-.65-3.22,2.63-3.42,2.75.18-.1,1.45-.22,1.37.34-.62.73-1.04,1.26-2.05,1.03-.07-.05.62-1.34.68-1.37-.41.25-1.84-.21-2.79.97-.81,1-.95,3.24-1.31,4.54,1.02.23.41-.84,1.21-1.32s2.6-1.17,3.58-1.43c-3.2,3.52-5.81,2.82-3.42,7.59-.86-.17-4.83,4.14-5.52,5.15-1.29,1.89.61,2.78,2.08,3.82-.1-1.19,4.4-6.67,4.8-6.21l-3.97,6.56,3.59,2.45c1.22-1.65,1.78-3.85,3.81-4.87-.56,1.93-1.81,3.41-2.66,5.19.07.89,5.1,2.68,5.4,2.4l2.73-7.56c-2.12-.75-3.37-1.07-5.46-.03,1.03-3.55-2.79-2.89-4.79-6.9.42.08,1.01.95,1.82,1.14.56.13,1.54-.52,1.6-.45.17.2-.18,4.05,3.41,2.45.29-.13,4.12-4.54,4.12-4.86,0-.23-1.55-1.8-2.29-1.67-1.09.18-2.09,3.12-3.86,2.7,1.22-2.31,2.59-1.73,3.42-4.13.7.09,7.7-4.07,7.53-4.48-.92-2.29-6.64,1.57-7.19,2.44s-.18,1.58-.34,2.04c-1.31-.17-2.31-2.14-2.05-3.45ZM336.99,45.52c-4.51-.38,2.91,5.62,4.46,6.2,2.34.88.07-2.85-.35-3.44.68.23,1.4.33,2.05.69,2.08-2.85-12.93-12.68-6.16-3.45ZM278.08,46.9c-.06-.04.26-1.3-.43-1.43-1.6-.3-4.55,2.03-5.82,3.08-.41.34-2.33.61-1.28,1.79,1.91,2.15,5.55-3.48,7.53-3.44.1,2-2.34,2.07-3.43,3.8-.55.87-.79,1.43.35,1.72,2.76.69,4.62-2.99,6.48-4.48-.63-1.46-2.99-.77-3.41-1.03ZM331.5,48.98c-.52-.62-6.22-4.06-7.53-3.46-.03,1.13,4.4,5.02,4.82,5.2,1.25.53,3.65-.6,2.71-1.74ZM328.08,52.41c.82-1.08-4.25-5.17-5.31-5.42-1.59-.37-8.3,4.15-11.13,2.67,1.79,4.53,1.8,7.55,7.53,5.5.26-.26-3.53-4.05-2.73-5.51,3.39,2.26,2.2,6.58,7.52,4.13l-3.41-5.51c2.84,1.42,3.91,6,7.52,4.13ZM284.93,51.03c.6-6.77-7.72,1.21-6.17,2.75,3.87,1.05,3.64-.3,6.17-2.75-.13,1.48-1.71,2.48-1.37,4.14,5.81,1.48,4.66-1.34,6.85-5.51-1,.47-3.86-.73-4.03-.61-.1.07-.65,1.2-1.45,1.98ZM333.57,50.33c.06.07,1.13.14,1.69.68.88.85,5.02,6.15,5.83,3.11.42-1.57-5.13-5.68-5.9-5.79-1.14-.17-2.08,1.41-1.63,2ZM257.52,50.33c.1-.13.25-1.45-.33-1.36-1.87,1.85-5.38,3.01-5.13,6.2,1.95-1.03,3.05-2.95,4.38-4.58.27-.32,1.04-.2,1.08-.26ZM349.99,55.17c0-3.04-2.52-5.48-5.47-5.51l5.47,5.51ZM295.21,50.35c-4.63-1.08-4.93,1.74-6.16,5.51,1.26-.69,4.59.85,4.78.7.25-.2,1.77-5.83,1.38-6.21ZM300.69,50.34c-5.16-.94-5.2,1.89-5.48,6.21h5.48s0-6.21,0-6.21ZM306.16,50.35c-.23-.24-3.25.14-4.11,0v6.21s4.8,0,4.8,0c-.29-1.01-.48-5.97-.69-6.2ZM310.85,50.46c-.79-.5-2.91.07-4-.11,1.37,4.75.1,7.84,6.16,5.5.17-.24-1.92-5.24-2.16-5.4ZM335.02,57.84c1.16.68,3.3-.8,3.28-2.22-.09-.5-5.37-5.26-5.76-5.26-.23,0-1.78,1.56-1.66,2.31.18,1.1,4.04,3.23,4.14,5.17ZM349.32,59.31c-.22-.98.27-2.05-.36-3.42-.17-.37-4.44-4.82-4.78-4.84-.82-.05-1.21,1.61-.69,2.74.15.32,4.33,5.14,4.6,5.37.36.3.81.17,1.22.15.8,3.53,2.87,4.35,4.12,7.59,2.72-.07.72-6.71,2.72-4.82.52.49,2.11,6.25,3.43,7.25-.41,2.86-3.07-3.68-2.74-3.81-3.51,2.31.69,6.81,1.72,9.65,2.99-5.27,1.37-9.56-1.08-14.44l-1.26.62c-.47-1.18-3.7-7.12-4.17-7.55-.74-.66-1.46-.07-1.39,1.05.11,1.83,1.39,2.17,1.4,3.77-2.7-1.68-1.64.49-2.73.69ZM252.74,58.62c1.02.89,5.02-4.18,5.5-5.15.39-.8.9-1.49-.38-1.74-.83-.16-7.08,5.18-5.12,6.89ZM272.35,52.56c-.9.17-5.41,5.15-3.83,6.38,3.96,3.07,5.05-2.59,7.5-4.8,0-.65-2.97-1.71-3.66-1.57ZM334.25,59.3c.62-.83-4.23-6.63-5.13-6.7-.43-.03-7.77,3.23-7.86,3.65,1.64,4.69,2.69,7.34,8.2,5.12.74-1.03-4.31-4.87-3.41-6.89,1.72.42,3.62,5.8,4.16,6.17.67.47,2.98-1.5,4.05-1.36ZM245.9,62.07c2.82-1.99,5.4-4.48,4.78-8.28-2.48,1.62-4.83,5.22-4.78,8.28ZM293.83,57.25c-3.84,1.59-14.11-3.3-16.65-2.66-1.46.37-3.44,4.83-4.58,6.1,1.38-.05,4.4,1.77,5.48,1.09,1.36-.86,1.76-5.07,3.41-5.91l-2.05,6.89c1.51-.48,4.42,1.18,5.51.41,1.24-.88.95-5.18,2.71-5.92l-1.36,6.2c6.99,2.25,6.91,0,7.53-6.2ZM342.22,54.53c-4.26.77,2.38,6.85,3.33,8.21,4.3-1.44-1.81-8.49-3.33-8.21ZM323.29,62.75c-2.58-4.72-1.85-7.73-8.22-6.2,1.03,6.08,1.68,8.32,8.22,6.2ZM300.69,57.93c-.22-.22-4.98.17-6.16-.69-.97,6.98-1.89,8.28,6.16,7.59-.18-1.16.25-6.66,0-6.9ZM316.44,64.13c-1.06-1.63-1.39-6.17-3.19-6.78-2.66-.9-5.33-.52-4.35,2.65-2.28.66-.78-1.88-1.74-2.12-1.3-.31-3.6.3-5.11.04v6.9s6.85,0,6.85,0l-.68-2.75c2.26-.71.79,1.88,1.74,2.11,1.62.39,4.61-.37,6.48-.05ZM336.19,60.09c-.76-.45-4.45.77-4.66,1.68,2.83,9.3,6.86,6.73,12.99,2-2.28-3.29-3.81-8.01-8.22-5.14-.36.46,5.2,5.86,3.77,7.57-1.2-.68-3.44-5.86-3.88-6.12ZM247.27,66.89c1.39-1.13,6.73-7.72,3.76-8.96-1.61,3.32-6.13,4.63-3.76,8.96ZM243.16,68.28c.46-2.71,2.7-4.55,2.04-7.59-2.71,2.37-4.6,5.98-4.1,9.66l1.36-.7c-.93.73-.38,6.53,1.36,4.83.75-.73,3.71-7.57,2.06-8.96l-2.72,2.76ZM252.02,70.32c.3-.2,3.3-6.17,3.27-6.54-.06-.69-1.71-1.73-2.2-2.39-.37,0-4.23,5.12-4.31,5.95-.16,1.63,1.88,3.9,3.25,2.98ZM277.4,62.76c-1.38.57-4.85-1.49-5.5-1.09-.49.3-3.72,6.94-3.4,7.29,1.45-.34,5.19,1.99,6.1,1.33.32-.23,2.44-6.4,2.81-7.53ZM330.78,62.08c-.43-.32-4.91,1.66-6.12,1.37,3.13,5.47,1.31,9.13,8.9,6.19.35-.4-2.46-7.32-2.78-7.57ZM350,71.03c-1.77-.6-3.11-5.87-4.51-6.19-.54-.13-3.6,2.04-3.63,2.38-.07.82,3.51,5.56,3.35,7.26.53.39,3.64-1.57,4.3-2.06.61-.45.41-1.32.48-1.39.83-.82,3.3-.21,2.76-3.76-.15-1-3.32-5.36-4.39-5.17-4.54.81,2.11,6.65,1.63,8.93ZM284.25,64.14c-1.31.59-5.65-1.03-6.13-.67-.32.24-3.06,7.27-2.78,7.56.19.19,2.64-.16,2.74,1.38-.84.37-3.09-1-3.42-.69-.31.29-1.74,7.06-2.04,8.25l8.19,1.39,1.39-8.26-2.74-1.38c4.79,1.41,4.07-3.99,4.79-7.59ZM260.24,66.27c-.13-.19-3.42-1.54-4.06-2.13-1.89,5.16-6.85,7.52.66,10.34-.13-1.65,4-7.36,3.4-8.22ZM326.71,71.72c-1.49-6.06-1.99-9.02-8.9-6.89.88,1.19,1.54,7.12,2.11,7.53.8.57,5.28-1.26,6.8-.64ZM292.46,65.52c-1.51.62-5.99-1.22-6.79-.65-.57.41-1.23,6.34-2.11,7.53,8.51,1.71,7.8,1.26,8.9-6.89ZM300.69,65.51h-7.54c-.82,8.58-1.8,8.81,7.54,8.28v-8.28ZM308.87,65.55c-.38-.38-5.59.19-6.82-.04v8.28s8.22,0,8.22,0c-.62-1.24-1.1-7.94-1.4-8.23ZM317.06,65.58c-.54-.47-5.48.19-6.79-.07-.38.39.57,7.38,1.35,7.98.27.21,5.63-.91,6.88-.4.27-.27-1.15-7.27-1.44-7.52ZM264.38,75.86c.14-2.62,1.76-4.38,2.06-6.89-1.42.37-4.47-2.04-5.43-1.34-.33.24-2.54,6.55-3.48,7.53,3.24.42,4.56,3.51,6.85.7-.03.54-.18,1.72.07,1.98.23.23,5.66,1.64,6.34,1.41,1.58-.52,1.93-5.72,3.13-7.2-7.98-4.47-5.84-.74-9.54,3.81ZM344.52,75.85c-.5-1.17-3.09-7.99-3.44-8.27-.23-.18-4.22,2.38-5.47,2.08.79,1.03,2.48,7.28,2.81,7.52,1.08.78,4.69-1.26,6.1-1.33ZM250.62,71.13c-.12-.17-2.81-1.46-3.35-2.16-1.29,4.12-5.32,6.78-.35,10.33.71,0,4.17-7.52,3.7-8.17ZM236.99,79.31c-1.99,0-1.93,3.02-2.05,4.49-.1,1.26,0,2.53,0,3.78.69.2,1.22-1.59,1.36-2.07-.42,3.18.32,5.4,1.36,8.28l-2.04-2.07-.68,2.75-.69-6.2-.69,8.28,1.36-.7c-.23,2.71.06,5.56,2.74,6.9-1.52-5.15,2.16-12.52,1.86-16.81-.04-.6-1.63-4.54-2.53-3.19.14-1.08-.18-2.42,0-3.45,2.58,0,.8,3.55,3.09,4.82-.1-1.02.99-1.96,1.02-2.07-.67,3.21.75,5.35,3.42,6.9.47-4.67,4.11-7.76-1.02-11.02-.37.68-2.35,3.89-2.4,4.12.49-1.41,1.82-6.65.68-7.58l-2.73,2.75,1.36-7.58c-1.96-.36-1.12.5-1.54,1.52-1.41,3.41-1.31,4.84-1.88,8.14ZM354.78,69.66c-5.98,1.21-1.48,6.94.35,10.33,4.9-3.31.6-6.19-.35-10.33ZM334.88,70.36c-.45-.33-4.88,1.66-6.12,1.36-.29.33,1.78,7.96,2.13,8.21,1.17.84,5.16-1.59,6.78-1.32.29-.33-2.44-7.99-2.79-8.25ZM363.01,77.93c-.58-.9-1.73-4.41-2.73-3.45-.49.47-.75,3.85-.69,4.82-1.48-1.3-3.66.44-4,1.86-.43,1.83,1.77,5.74,1.95,7.79,4.19-.8,3.46-4.27,2.73-7.58.27.71,1.85,1.85,1.38,3.45.15.18.94-.52,1.36-.69-.42,3.78.06,5.84.69,9.65.14.18.94-.52,1.36-.69-.42,3.42-1.1,6.8-.68,10.34,3.18-2.45,1.75-7.52,2.04-11.03-.13-.19-.95.52-1.36.69.46-3.74,1.77-7.42,1.19-11.21-.09-.61-.3-2.08-1.19-1.89l.67,6.89-1.37-3.44c-.17-.18-.93.51-1.36.69.18-1.61.48-3.21.68-4.83.08-.64.88-1.27.74-3.07-.08-1.03-1.98-7.37-3.14-5.21-.49.93,1.27,4.99,1.72,6.9ZM253.42,83.45c.65-6.23,5.72-7.74-2.04-11.03-1.85,5.38-5.99,9.11,2.04,11.03ZM327.35,72.44c-.3-.22-6.53,1.15-6.73,1.43-.91,1.32,1.46,6.37,1.3,8.2l7.53-1.39c.28-.32-1.76-8-2.1-8.25ZM353.31,81.96c1.34-2.19-2.41-6.51-2.64-8.86-7.12,2.9-2.7,4.65-2.04,10.34.4.35,4.47-1.15,4.68-1.49ZM291.1,74.48c-1.59.33-7.34-1.47-8.19-.65-.3.29-.97,7-1.4,8.23l8.91.7.69-8.28ZM319.17,73.79l-7.53.69.69,8.97,7.93-1.34-1.09-8.32ZM310.28,75.17c-4.22-.12-8.48.16-12.7.04-1.8-.05-5.02-1.75-5.69.42-.12.38-.83,6.38-.73,6.71.43,1.53,7.67,1.44,9.16,1.17.97-.18-.34-2.35,1.05-2.11.58,3.8,6.66,1.45,9.6,2.07l-.69-8.28ZM263.02,77.94l-6.15-2.08c-2.34,6.99-5.15,8.37,3.4,11.03l2.75-8.96ZM341.79,87.59c8.01-2.41,6.73-4.48,3.08-11.01-.75,1.14-5.03,1.65-5.2,2.48-.44,2.19,2.33,6.05,2.12,8.53ZM270.5,80.75c-.34-.48-5.71-1.16-6.79-2.13l-2.04,8.94,7.5,2.1c-.68-1.9,2.1-7.81,1.33-8.91ZM340.36,88.23c.5-3.17-1.48-5.91-2.01-8.92-1.03.93-6.55,1.72-6.82,2.1-.54.75,2.04,6.57,1.35,8.25l7.48-1.43ZM280.14,82.76l-8.19-1.37-2.09,8.25,8.9,2.08,1.38-8.97ZM252.69,84.2c-.17-.24-5.21-2.33-5.42-2.14.36,1.87-2.7,6.93-1.97,8.17.15.26,5.12,3.06,5.38,2.86.07-1.53,2.55-8.16,2.01-8.9ZM332.2,90.34c-1.31-8.28-1.32-9.64-9.98-6.91l1.07,8.3,8.91-1.39ZM351.38,93.1c8.01-1.42,4.22-5.35,3.41-11.03-.76.91-5.28,2.54-5.46,2.79-.3.41,2.4,6.78,2.05,8.25ZM289.61,84.94c-.84-1.38-7.05-1.78-8.78-1.49l-1.38,8.26,9.59,1.39c.19-1.88,1.46-6.71.57-8.16ZM321.23,83.45l-8.9.69.7,8.96,8.9-.68-.69-8.97ZM300.69,84.82l-9.59-.69-.69,8.97,10.28.69v-8.97ZM310.86,84.92c-1.08-.68-6.99.29-8.81-.1v8.97c3.16-.16,6.52.56,9.5-.79.48-.78.1-7.58-.69-8.08ZM259.49,87.69c-.17-.27-5.81-2.4-6.05-2.17.09,2.04-2.32,7.28-1.28,8.88.18.27,5.11,1.8,6.07,2.16-.13-1.94,2.13-7.48,1.27-8.86ZM348.62,86.21c-.95.41-5.91,1.87-6.1,2.13-.69.96,1.7,7.16,1.32,8.9.26.27,6.59-2.48,6.75-3.15.1-.41-1.65-7.64-1.97-7.88ZM242.46,98.62c.82-4.69,3.25-9.03-2.04-11.72-1,4.68-3.24,8.97,2.04,11.72ZM359.6,98.62c5.11-2.6,2.86-6.5,2.04-11.03-5.11,2.6-2.86,6.5-2.04,11.03ZM268.48,90.37l-7.51-2.09c-1.57,7.68-3.31,9.56,5.49,11.43,1.61-.95,1.61-7.3,2.02-9.34ZM343.15,97.92l-2.07-8.96-7.53,2.07,1.38,8.97,8.22-2.08ZM367.12,88.97v6.2s.69,0,.69,0v-6.2s-.69,0-.69,0ZM278.07,92.42l-8.2-1.39c-2.82,9.53-1.85,9.83,7.52,11.04l.68-9.65ZM249.89,93.9c-.16-.25-4.95-2.59-5.36-2.18.29,2.02-1.38,5.61-1.11,7.28.24,1.41,4.63,3.04,5.56,4.44-.01-2.01,1.79-8.15.91-9.54ZM333.49,100.63c.45-.54-.63-8.14-1.27-8.62-1.21-.09-7.93.83-8.22,1.13-.84.88.91,7.26.65,8.94.31.33,8.55-1.1,8.84-1.45ZM357.53,91.73c-.35-.37-5.46,2.91-5.53,3.23-.31,1.59,1.53,5.59.74,7.8,7.38-.46,5.58-5.52,4.79-11.03ZM288.35,103.45c.27-2.08,1.52-7.39.39-9.01-.64-.91-7.63-.98-9.29-1.34.34,2.12-1.59,7.23-.58,8.87.62,1.01,7.78.75,9.49,1.48ZM322.6,93.8l-9.54.72.67,8.9,9.56-.65-.7-8.96ZM300.68,94.48h-10.27l-.69,8.97,10.96.69v-9.66ZM311.64,94.48h-9.59v9.66c9.5.46,12.2,1.08,9.59-9.66ZM256.84,106.9c1.46-7.01,1.93-9.65-5.46-11.72-.36.27-1.53,8.5-1.3,8.88.3.49,5.76,1.92,6.76,2.84ZM345.21,106.9c7.4-.88,8.05-4.83,5.12-11.04-7.25,2.02-6,4.56-5.12,11.04ZM245.21,126.21c-1.46-3.01-2.6-7.44-2.05-11.03,1.42.74.28,3.05,1.56,4.63.86,1.07,3.84,1.82,4.94,2.94-.84-2.34.21-5.82-.46-7.81-.54-1.6-4.7-2.18-5.72-3.9l-1.02,2.75c0-2.25.26-4.3-2.07-5.17.07-.82,1.94.19,2.11-.72.82-4.45.07-8.75-3.82-11.34-1.11,3.03.08,6.34.21,9.3.05,1.03-.68,2.18-.58,3.42.19,2.37.91,5.17,2.08,7.27-1.07.79-1.57-.03-2.13-.98-.41-.69-1.52-3.94-2.68-3.48,1.36,7.65,3.89,15.84,7.67,22.63,1.67,3,4.95,6.32,8.09,7.36.04-.45-.04-.93,0-1.38,1.94,2.41,4.06,4.74,6.84,6.21-.48-3.96-3.46-5.73-6.51-7.58-.62-.03-.29.91-.34,1.37-1.24-1.54-2.13-3.3-3.42-4.82l6.51,4.12c-.06-1.16-.32-2.22-.35-3.43,2.41,3.66,3.37,5.91,8.21,6.9.22-.27-1.9-6.45-2.22-6.73-.58-.51-4.53-1.45-5.64-2.24-.62,0-.37,1.44-.35,2.08-.87-1.32-1.02-2.72-1.54-3.29-.69-.76-4.06-1.66-4.97-2.92-1.18,1.12,2.61,4.09.36,4.82-.29-3.12-3.7-6.09-2.75-8.96,1.31,2.7,4.16,4.69,6.84,5.5l.69-1.36c-.3,3.45,4.29,3.76,6.85,4.82-.52-6.48-2.28-7.84-7.88-10.34l-1.02,2.06c.24-3.48-3.26-3.44-5.16-5.51l-.33,4.82ZM360.28,108.27c4.04-1.87,4.59-7.52,2.39-11.02-3.86,3.24-3.75,6.18-2.39,11.02ZM233.56,98.62v5.51s.69,0,.69,0v-5.51s-.69,0-.69,0ZM267.1,100.71c-.28-.32-7.02-1.6-8.19-2.09.33,2.09-1.6,7.27-.59,8.87.23.36,7.8,2.5,8.12,2.16-.69-1.51,1.02-8.53.67-8.94ZM343.15,99.31l-8.22,2.08c.96,2.92.7,5.92.69,8.96,1.18-.23,7.87-1.82,8.14-2.14.72-.83-.32-7.29-.62-8.9ZM248.62,113.1c.33-6.41,2.15-9.71-5.47-11.72-.46,6.5-.63,8.82,5.47,11.72ZM276.71,112.41c-.72-2.26,1.61-7.32.39-9.01-.62-.86-7.68-1.56-9.29-2.02l-.68,8.94,9.57,2.09ZM358.75,110.2c.79-1.37-.25-6.83.14-8.82-6.29,2.71-5.83,5.28-5.47,11.72.45.51,5.17-2.64,5.32-2.9ZM237.66,112.41c.05-3.57.66-7.96-2.73-10.34-.07,1.88-.1,3.7.29,5.56.25,1.16,1.3,4.18,2.43,4.78ZM334.25,102.07l-9.57,1.41.66,8.94,9.59-1.38-.69-8.97ZM288.36,113.8c-.37-2.02.66-7.63-.3-9.01-.36-.52-8.72-1.49-9.33-1.05-.86.63-.97,7.9-.55,8.58.49.8,8.53,1.22,10.18,1.48ZM323.98,113.11c-.34-1.97.75-8.34-.67-9.36-.54-.39-8.04,1.34-9.6,1.08v8.96s10.27-.69,10.27-.69ZM364.39,112.41c2.77-1.9,1.95-6.1,2.04-8.97-3.08,1.79-1.84,6-2.04,8.97ZM299.66,104.83c-2.18-.68-7.33.49-9.93,0l-.69,8.96,11.65.69c-.32-1.87.86-9.07-1.03-9.66ZM302.05,114.48c.42.27,8.38,0,9.93,0,1.79,0,1.09-9.37-.08-9.7l-10.54.73c-.02,1.49-.16,8.42.69,8.97ZM256.85,116.55c.49-6.95.69-9.79-6.84-11.03-.55,6.75-.53,10.08,6.84,11.03ZM345.21,117.24c7.86-.95,7.21-4.85,6.84-11.72-7.01,2.65-7.57,4.06-6.84,11.72ZM363.69,107.59c-5.22,1.23-3.8,6.99-4.46,11.02,4.01-2.76,4.3-6.41,4.46-11.02ZM266.37,111.1c-.28-.32-6.97-1.7-8.14-2.14-2.28,9.18.1,9.32,8.21,11.03-.29-1.53.44-8.3-.07-8.89ZM344.52,109.65c-.39-.4-7.37,1.23-7.9,2.04-.74,1.14-.27,7.04-.99,8.99.29.32,8.02-2.15,8.28-2.5,1.23-1.71.37-6.37.62-8.53ZM276.71,122.07c-.34-1.89.62-7.04-.3-8.32-.62-.87-7.68-1.57-9.29-2.02.34,1.92-.64,6.96.3,8.31.48.69,8.82,2.5,9.29,2.03ZM352.74,122.76c5.9-1.49,5.7-5.91,6.15-11.03-5.28,2.12-6.82,5.36-6.15,11.03ZM334.93,112.41l-9.55,1.41-.03,8.93c.33.34,8.82-1.36,9.28-2.03.94-1.35-.04-6.39.3-8.32ZM362.33,120c.05.48-.15,3.58,1.36,2.07.54-.54,2.36-7.62,2.06-8.96-2.66,1.3-2.17,4.46-2.73,6.45-.19.66-.67.41-.68.45-.09-.81.38-2.33-.34-2.76-3.67,2.67-4.45,5.94-4.8,10.33,1.03-1.26,2.95-2.48,3.69-3.86.61-1.14,1-2.66,1.45-3.71ZM288.35,124.14c-.37-2.02.66-7.62-.29-9.01-.86-1.24-7.89-.3-9.97-1.33.25,1.43-.37,8.52.03,8.93.65.67,8.58.53,10.23,1.41ZM313.7,124.14c.37.37,9.89-.7,10.32-.99,1.57-1.08.27-7.49-.05-9.36l-10.27,1.38v8.97ZM256.72,118.06c-.33-.37-5.56-1.55-6.38-2.89-.43-.14.39,7.9.66,8.3.32.49,5.4,2.4,6.53,2.72.34-.38-.31-7.56-.81-8.14ZM300.65,115.9c-.45-.47-11.2-1.14-11.61-.73v8.97s11.65.69,11.65.69c-.25-1.44.36-8.52-.04-8.93ZM313.02,115.17l-10.97.69v8.97c.39.39,10.49-.28,10.93-.73.4-.41-.21-7.5.04-8.93ZM351.26,124.03c.21-.35,1.03-7.83.79-8.16-.92,1.15-6.53,2.55-6.77,2.83-.21.25-.71,5.59-.76,6.49-.03.74-.49,2.11,1,1.69.37-.1,5.56-2.58,5.73-2.85ZM267.12,129.65c.28-.31-.74-7.97-.98-8.32-.59-.87-6.56-1.56-7.91-2.71-.83,8.31,1.25,9.75,8.89,11.03ZM334.94,130.34c7.33-1.73,9.87-2.59,8.89-11.03-1.37,1.17-7.3,1.83-7.91,2.72-.75,1.07-.1,6.43-.98,8.32ZM276.65,123.51c-.3-.33-7.56-1.2-8.84-1.44.05,1.58-.35,7.41.8,8.16.72.47,7.28,1.11,8.78,1.49.1-1.14-.46-7.92-.74-8.22ZM334.93,122.07c-1.49.75-9.12,1.56-9.49,2.16-.48.77.12,6.47-.77,8.18,2.01-.49,7.84-.91,8.97-2.34,1.27-1.62.18-5.82,1.3-8ZM356.85,122.76c-4.95.62-6.04,4.54-6.16,8.96,4.37-.9,5.75-4.96,6.16-8.96ZM360.28,128.97c1.73-.98,2.71-3.61,2.73-5.52-1.75.9-2.42,3.7-2.73,5.52ZM288.36,124.82l-10.28-.69.7,8.27,9.57,1.39v-8.97ZM323.97,124.14c-1.66.88-9.58.74-10.23,1.41-.39.4.2,6.88-.03,8.24,2-.82,8.56-.24,9.63-.99,1.35-.95.34-6.79.64-8.66ZM300.68,125.52h-10.96v8.28c3.56.02,7.14-.32,10.61.7l.35-8.98ZM313.01,125.52h-10.96v8.97c.41.41,10.17-.64,10.66-1.34.89-1.26-.02-5.83.3-7.63ZM342.47,135.86c5.92-1.49,7.79-4.28,8.21-10.34-5.79,2.09-7.84,3.81-8.21,10.34ZM332.19,155.17c0,.6.78,1.95.69,2.06-.19.24-4.68,1.37-4.8,3.45,4-1.52,9.04-2.51,11.64-6.19-1.75,0-2.94,1.44-4.61,1.91-.64.18-2.42.67-2.24-.53,1.08.01,2.04-.29,3-.78,4.67-2.44,10.63-5.36,14.42-9.62,2.56-2.87,4.63-7.9,7.91-10.66l-.33-1.02c-.72.9-6.45,6.22-7.19,5.51,1.47-2.32,3.26-4.7,3.43-7.58l.67,4.13c1.8-2.87,4.78-5.1,4.8-8.96-1.66.18-3.81,4.44-4.21,4.69-.2.12-1.14-.55-1.88-.19-4.19,1.99-4.21,3.36-5.78,7.4-.34.88.15,2.04-.17,2.6-.25.44-1.36.64-1.67,1.18-.89,1.56-1.46,3.33-2.72,4.66,2.02.87,3.83-2.02,5.13-3.11,1.57-1.32,1.41-.29.7.7-2.04,2.83-4.39,3.13-7.14,4.53-1.39.71-1.67,2.84-2.8.3,2.96-.63,4.1-3.91,5.48-6.21-4.2.83-6.64,1.93-7.91,6.21-.27.89.42,1.94.36,2.02-.16.2-1.68.21-2.24.68-.88.74-1.13,1.72-2.54,2.81,0-.67.81-1.96.68-2.06-4.17.4-5.9,1.2-7.52,5.17,2.96.04,4.69-1.45,6.83-3.11ZM268.49,138.62c.27-7.22-1.99-9.09-8.89-9.65-.13,7.27,2.97,7.81,8.89,9.65ZM340.94,136.4c.68-.7,1.97-6.82,1.52-7.43-1.23,1.22-6.86,1.73-7.4,2.19-.62.53-.89,6.12-1.49,7.46.35.33,6.88-1.7,7.38-2.22ZM278.01,133.17c-.5-.62-8.06-.88-9.51-2.14.23,8.65,2.42,8.12,9.92,9.66.19-1.09-.17-7.24-.4-7.53ZM332.04,139.16c.27-.27,1.74-7.13,1.51-7.44-1.37,1.35-8.54,1.1-8.87,1.41-.28.27-.88,6.48-.72,7.55.39.39,7.62-1.08,8.07-1.53ZM289.04,142.07c-.24-1.69.66-6.4-.64-7.28-.69-.47-9.21-1.35-9.63-.99.52,8.66,2.8,7.5,10.27,8.27ZM323.28,133.8c-7.22,1.44-10.82-1.48-10.27,8.28,1.27.14,9.23-.38,9.57-.72.27-.27.67-6.46.71-7.56ZM300.69,135.17c-3.68-.1-7.4.44-10.96-.68.18,1.14.52,7.21.76,7.51.78.98,8.48.75,10.2.77v-7.59ZM312.33,135.17h-10.27v7.59c7.19.01,11.58,1.77,10.27-7.59ZM347.94,135.18c-5.63.71-7.47,3.51-8.21,8.96,1.13-.99,5.37-2.16,5.98-2.93.75-.93.91-4.71,2.23-6.03ZM271.23,146.2c-1.29-6.88-3.52-7.02-9.58-8.96.45,6.93,3.57,7.74,9.58,8.96ZM340.41,137.93c-5,1.05-8.84,2.29-8.9,8.27,5.55-.33,8.09-2.78,8.9-8.27ZM279.34,142.18c-.59-.89-7.34-1.17-8.79-2.18-.34.44,1.39,6.13,2.03,6.57.32.22,7.27,1.98,7.54,1.71-.26-1.19-.38-5.47-.79-6.09ZM331.5,140.69c-1.55.87-7.3.95-8.1,1.49-.59.4-1.08,4.96-1.48,6.09,6.29-.2,9.25-.58,9.58-7.58ZM289.69,143.49c-.46-.5-8.07-.67-9.55-1.41.4,7.91,3.64,7.05,10.27,7.58-.5-1.03-.51-5.94-.72-6.17ZM265.75,150.34c-1.05-4.44-3.82-6.77-8.22-7.58,1.41,3.7,4.17,6.86,8.22,7.58ZM321.92,142.76c-1.32.27-8.55.41-8.87.72-.23.21-.72,5.23-.72,6.17.29.29,7.61-.48,8.1-.8.46-.31,1.91-5.67,1.49-6.09ZM251.21,142.92l-.7.7,4.79,4.82.7-.7-4.79-4.82ZM300.59,144.24c-.79-1.27-8.36-.64-10.18-.78.54.98.47,5.97.69,6.19.34.34,8.31.81,9.58.7-.29-1.44.47-5.2-.1-6.11ZM311.64,143.45h-9.59v6.9c7.09-.19,10.63,2.29,9.59-6.9ZM273.28,152.41c-.07-5.43-3.85-5.86-8.21-6.89.99,4.74,3.16,7.04,8.21,6.89ZM329.45,149.66c-.08,1.21-.57,2.26-.68,3.44,4.42-.59,7.03-2.45,8.21-6.89-3.29.68-5.32.86-7.53,3.45.03-.45.25-1.41-.35-1.39-1.33.58-7.2,1.03-7.74,1.51-.57.51-.42,4.15-1.48,5.06,1.99-.39,5.16-.25,6.81-1.41.96-.68,1.64-2.46,2.76-3.77ZM256.85,147.59c.95,2.43,2.71,4.45,5.46,4.48-1.25-2.01-2.79-4.37-5.46-4.48ZM282.19,154.48c-.1-5.63-4.15-6.05-8.9-6.2.75,5.02,4.22,6.42,8.9,6.2ZM291.09,155.86c.39-7.12-3.84-5.08-8.9-6.2-.33.34,1.2,5.25,1.46,5.42.63.4,6.1.52,7.43.78ZM269.86,155.86c-1.73-3.09-3.97-4.92-7.53-5.5,1.41,3.1,4.08,5.2,7.53,5.5ZM319.86,150.35c-1.15-.03-7.91.4-8.21.69-.25.24.15,3.87,0,4.82.32.32,6.99-.22,7.44-.79.3-.38.25-3.73.78-4.72ZM300.69,151.03h-8.91c-.97,6.43,4.23,5.38,8.91,5.52v-5.52ZM310.96,151.04h-8.91s0,5.52,0,5.52c5.59,0,8.85,1.55,8.91-5.52ZM276.71,156.55c-1.16-.84-1.5-2.08-2.55-2.61-.42-.21-5.44-1.7-5.67-1.52l4.79,6.2-5.47-1.72c3.41,3.91,7.26,5.34,12.33,5.17-1.32-2.01-3.1-2.85-3.42-5.51,2.1,1.52,9.96,6.23,7.03.85-1.39-2.55-4.7-1.74-7.02-2.92.04.68-.09,1.4,0,2.07ZM267.12,156.56l-4.1-2.07c.31,1.07,3.29,4.19,4.1,2.07ZM317.81,158.62c.08.41-.06.93,0,1.37,3.77-.35,6.87-.77,8.22-4.82-.31-.24-5.5.68-6.16,1.04-.85.46-1,1.62-2.06,2.4-.12-.6.1-1.41,0-2.07-3.31.21-8.04-.54-7.53,4.14,3.3.42,4.98-.18,7.53-2.07ZM292.46,160.69c-.29-5.58-3.99-4.04-8.22-4.13,1.01,4.44,4.23,4.03,8.22,4.13ZM300.69,157.24h-8.22c1.07,5.01,3.9,4.29,8.22,4.15v-4.15ZM309.59,157.24h-7.54s0,4.14,0,4.14c3.84.05,7.64,1.06,7.54-4.14ZM327.4,159.32c-2.48-.01-5.05,1.13-6.16,3.43,2.48.01,5.05-1.13,6.16-3.43ZM286.98,163.44c-.16-3.47-4.39-2.63-6.85-3.44,1.27,2.58,4.12,3.57,6.85,3.44ZM315.07,162.76c-.02-.46.04-.92,0-1.38-7.64-.23-9.6,6.13,0,1.38.14,2.7-.71,1.63-2.05,3.44l9.58-2.07-3.42-.69,2.05-2.74c-3.32-.95-4.13,1.06-6.16,2.06ZM293.84,164.83c.2-2.45-.89-3.1-3.06-3.48-.7-.12-3.56-.56-3.11,1.06l3.41,2.42c-2.41,1-4.43-.71-6.84-.67,1.98,2.93,7.8,2.39,10.96,2.41l-3.42-1.72h2.06ZM300.69,162.07c-1.07.41-6.58-1.04-6.15,1.02.6,2.93,3.8,1.45,6.15,1.74v-2.75ZM308.22,162.07c-3.3.43-7.17-1.73-6.16,2.75,3.05-.18,6.15,1.32,6.16-2.75ZM295.89,165.51v1.38s4.8,0,4.8,0v-1.38s-4.8,0-4.8,0ZM306.85,165.52c-1.17.58-4.3.14-4.79,1.37,1.63-.04,4.1.59,4.79-1.37ZM311.64,165.52c-1.5-.04-3.58-.38-4.11,1.37,1.01.45,5.07-.91,4.11-1.37Z"/>
    <path class="cls-1" d="M146.6,42.48h14.49v16.79h12.97c-2.88,15.08,2.15,28.77,6.87,42.73-7.16,1.39-13.92,4.62-19.84,8.78v47.7h-38.14v22.89H47.43v-40.07c0-1.02-2.89-.89-3.06-1.53-.55-2.08,3.06-.83,3.06-1.14v-19.08c0-.34-6,.26-6.87,0,1.75-7.93.31-15.58-2.48-23.08-.85-2.29-7.08-13.56-6.53-14.21.23-.27,1.39-.04,1.39-.11v-28.24h49.59v-29.76h62.94c.08,0,1.14,1.06,1.14,1.14v17.17ZM145.08,25.69h-35.09l-1.45,13.4c5,6.58,4.83,10.84,2.97,18.65.86.23,6.1-.3,6.1,0v11.83c0,1.68,2.27,2.24,3.61,2.46,6.34,1.01,10.54-3.3,10.16,4.44-.15,3.08-1.5,6.51-.78,9.74.13.58,1.32.71,1.74,1.48,2.12,3.84,3.47,6.57,2.81,11.27h-12.97v.76h22.89V25.69ZM145.84,50.11h13.35c1.63,0,1.63-6.87,0-6.87h-12.21c-1.59,0-1.14,5.6-1.14,6.87ZM145.84,53.92c.46.48,11.47,0,13.35,0,1.32,0,1.31-3.05,0-3.05h-13.35c-.15,0-.11,2.94,0,3.05ZM82.52,55.45h-48.06v25.18c4.06-.31,7.03-3.76,10.69-4.95,3.01-.98,6.39-.71,9.17-1.51,1.77-.51,10.16-6.11,10.64-5.75,9.19,15.68,12.9,32.36,14.51,50.37l-30.52.76v11.45h32.8v19.08h27.46c1.18-6.55-1.35-13.42-1.55-19.5-.07-1.99.91-3.8.82-6.03s-1.58-4.77-1.61-6.95c-.01-1.01,3.11-2.93,3.11-3.77v-12.59h-22.12v-33.58c0-.27-5.34.27-5.34,0v-12.21ZM159.57,55.45h-13.73v3.05h13.73v-3.05ZM116.86,59.25h-6.11v2.31h6.11v-2.31ZM159.57,60.03h-13.73v3.05h13.73v-3.05ZM172.54,60.79h-11.44v48.08l17.49-8.85c-4.33-12.47-8.72-25.9-6.05-39.22ZM116.85,63.08c-3.68.48-7.99-1.92-6.87,3.04,3.4-.2,6.85,1.47,6.87-3.04ZM159.57,63.84h-13.73v3.05h13.73v-3.05ZM95.11,70.71c6.39.53,14.03,0,20.6,0,.64,0,1.42-1.73,1.13-2.66-.81-2.58-8.23-.43-10.25-.36-5.72.18-11.49-.2-17.2-.03v2.28c2.04-.72,4.32.65,5.73.77ZM159.57,68.42c-.44-.45-10.8,0-12.59,0-.81,0-1.45,2.17-1.14,3.05h13.73c.15,0,.11-2.94,0-3.05ZM42.85,106.2c.44,3.69-.32,8.05,0,11.83l35.1-1.15c-2.49-16.58-5.15-31.51-13.76-46.16-.38-.27-6.9,3.95-8.15,4.42-3.34,1.27-7.08,1.06-10.16,2.05-3.76,1.21-7.66,5.5-12.19,5.75,2.65,7.41,8.21,15.32,9.15,23.27ZM115.71,71.48c-7.46-1.31-18.46.97-26.32,0,.1.55-.15,3.05,0,3.05h29.75c.85-1.16-2.53-2.89-3.43-3.05ZM159.57,73h-13.73v3.05h13.73v-3.05ZM119.14,76.05h-29.75v3.05h29.75v-3.05ZM159.57,76.82c-.44-.45-10.8,0-12.59,0-.64,0-1.42,1.73-1.13,2.66.67,2.13,13.22.87,13.71.37.11-.11.12-2.92.01-3.03ZM119.14,80.63c-.99-1.03-24.83,0-28.61,0-.16,0-.87-1.14-1.14-.76v3.82s29.74,0,29.74,0c.15,0,.11-2.94,0-3.05ZM159.57,81.4c-.44-.45-10.8,0-12.59,0-.81,0-1.45,2.17-1.14,3.05h13.73c.15,0,.11-2.94,0-3.05ZM119.14,84.45h-29.75v3.05h29.75v-3.05ZM159.57,85.98h-13.73v3.05h13.73v-3.05ZM119.14,89.03h-29.75v3.05h29.75v-3.05ZM159.57,89.79h-12.97v3.05h12.97v-3.05ZM119.14,93.61h-29.75v3.05h29.75v-3.05ZM159.57,94.37h-12.97v3.05h12.97v-3.05ZM119.14,97.42h-29.75v2.3h29.75v-2.3ZM137.83,102c3.65.93,16.53,0,21.36,0,1.44,0,1.44-3.82,0-3.82h-13.35c-.11,0,.26,1.92-.05,2.2-.63.57-7.49-.23-9.1.1-.02.48.89,1.45,1.14,1.52ZM122.96,100.48v.76h12.97v-.76h-12.97ZM138.21,105.82c-.2-.65-1.54-3.05-1.91-3.05h-13.35c-.15,0-.15,3.05,0,3.05h15.26ZM159.57,102.76c-.74-.77-18.61.58-21.36,0-.49.83,1.56,3.05,1.91,3.05h19.45c.15,0,.11-2.94,0-3.05ZM139.74,107.34c-.7-.47-14.36,0-16.78,0-.15,0-.15,3.05,0,3.05h17.55c-.01-.57-.63-2.96-.76-3.05ZM159.57,107.34h-18.31c-.1.61.54,2.72.88,2.93.69.42,14.96.37,16.16,0,1.44-.45,1.38-1.6,1.26-2.93ZM143.53,112.67c-.15.11-1.79-1.36-3.37-1.56-5.22-.67-11.82.58-17.21.04v3.82c6.05-.66,13.69.85,19.51.06,1.51-.2.97-1.65,1.47-1.62,1.1.05,1.8,1.3,3.07,1.54,3.57.67,7.01-.54,8.75-3.79-3.21.55-8.92-.78-11.71-.02-.72.2-.45,1.47-.51,1.52ZM159.57,111.16c-.71-.79-5.13,2.5-5.34,3.81,2.01-.55,3.32-.77,5.33,0v-3.81ZM146.6,118.79c.49-.83-1.56-3.05-1.91-3.05h-21.36c-1.32,0-1.31,3.05,0,3.05h23.27ZM149.66,115.75l-3.05.37c1.18,1.67,2.35,1.48,3.05-.37ZM148.89,118.79h10.68c.15,0,.11-2.94,0-3.05-.49-.52-10.63-.61-10.68,3.05ZM159.57,120.32h-36.62v3.05h36.62v-3.05ZM122.19,127.95h37c1.44,0,1.44-3.82,0-3.82h-35.85c-1,0-1.39,2.82-1.14,3.82ZM159.57,128.71h-36.62v3.05h36.62v-3.05ZM80.23,132.53h-32.04v2.29h32.04v-2.29ZM159.57,133.29h-36.62v3.05h36.62v-3.05ZM79.09,135.58h-30.9c-1,6.59,7.85,3.14,11.79,3.02,2.95-.09,19.52.73,20.24.03.46-.44-.2-2.78-1.14-3.05ZM159.57,137.11h-36.62v3.05h36.62v-3.05ZM80.23,140.16c-.82-.85-20.64.65-23.65,0,.07,1.11,4.37,3.05,4.96,3.05h18.69c.15,0,.11-2.94,0-3.05ZM58.11,142.46c-3.19-.56-5.72-2.19-9.15-1.53v2.28c2.15-.05,4.34.09,6.5,0,.92-.04,2.84.57,2.66-.75ZM159.57,141.69h-36.62v3.05h36.62v-3.05ZM80.23,143.97h-14.49c.71,1.33,3.93,2.37,5.31,2.71s8.77,1.54,9.19,1.11v-3.82ZM68.03,147.79c-.11-.96-3.94-3.05-4.2-3.05h-14.88c-.15,0-.15,3.05,0,3.05h19.07ZM159.57,146.26h-36.62v3.05h36.62v-3.05ZM72.99,148.55c-6.14-.97-17.26,0-24.03,0-.15,0-.15,3.05,0,3.05h30.51c-.22-.79-5.31-2.87-6.48-3.05ZM80.23,148.56h-3.04s0,.75,0,.75l3.04.77v-1.52ZM122.96,153.9h36.24c1.44,0,1.44-3.82,0-3.82h-36.24v3.82ZM79.47,153.13h-30.51c-.15,0-.15,3.05,0,3.05h29.75c.16,0,.88-2.95.76-3.05ZM159.57,154.66h-36.62v2.29h36.62v-2.29ZM78.71,157.71h-29.75v22.13h34.33c-1.32-7.5-2.5-14.81-4.58-22.13Z"/>
  </g>
</svg>