<?xml version="1.0" encoding="UTF-8"?>
<svg id="_Слой_1" data-name="Слой 1" xmlns="http://www.w3.org/2000/svg" viewBox="0 0 200 200">
  <g id="_Слой_25" data-name="Слой 25">
    <g>
      <path d="M62.87,24.93c21.16-1.66,55.27-1.94,76.31-.17,23.91,2.02,34.99,16.61,35.97,39.77.66,15.62-1.07,33.7-1.06,49.47,0,20.13,5.59,41.44-14.14,55.47-15.82,11.26-66.21,5.5-87.33,5.57-7.28.02-11.81,1.56-19.89-.21-20.94-4.58-25.96-21.57-27-40.65-1.16-21.29-1.52-51.62-.05-72.73,1.61-23.22,14.4-34.72,37.2-36.51ZM56.77,31.96c-11.68,1.58-21.25,11.2-23.9,22.55,1.95,28.71-2.93,61.55-.08,89.77,1.3,12.88,11.7,23.61,24.68,24.79,27.26,2.48,58.22-1.94,85.88-.04,12.84-1.91,22.82-11.86,24.74-24.74-2.02-27.85,2.69-59.44-.02-86.83-1.28-13-11.55-24.41-24.74-25.75-27.16,2.36-60.09-3.32-86.56.25Z"/>
      <path d="M81.25,75.12v-23.73c0-.37-1.24-1.3-.89-2.8,1.02-4.38,6.95-2.22,6.95-.23v30.8h10.1v-31.81c0-2,6.06-2.01,6.06,0v31.81h11.11c-.17-7.23.19-14.51.04-21.75-.07-3.38-2.4-7.13-.12-10.14,2.15-2.83,6.14-.24,6.14,1.09v25.75l10.1-8.58v-18.18c0-.62,1.65-1.49,2.53-1.58,5.87-.61,2.83,9.35,3.54,13.19l13.09-11.74c6.91.54,4.06,5.08,4.01,9.17-.35,28.03,2.26,57.48,1.05,84.85-.16,3.68-.55,14.63-6.02,12.15l-12.13-10.63-.46,11.15c-1.36,1.98-5.6.76-5.6-.55v-18.18l-10.1-9.59v27.77l-6.06,1.51v-34.33h-11.11v32.82c0,2-6.06,2.01-6.06,0v-32.82h-10.1v32.82c0,2-6.06,2.01-6.06,0v-27.77c-2.02.06-11.11,8.85-11.11,9.59v19.69l-4.94-.11-1.13-13.02c-5.55,2.42-13.06,19.47-17.21,7.63l.21-100.88,1.48-1.6c4.54-1.49,11.34,10.08,15.53,12.04l.46-12.16c1.36-1.98,5.6-.76,5.6.55v18.18c0,.74,9.09,9.53,11.11,9.59ZM52.98,142.77l11.08-11.63c-1.4-19.07,1.94-40.89.08-59.61-.57-5.77-7.13-9.69-11.17-13.57v84.82ZM147.89,142.77V57.95l-11.08,11.63c1.4,19.07-1.94,40.89-.08,59.61.57,5.77,7.13,9.69,11.17,13.57ZM130.73,125.61v-51.5l-9.89,9.8c.34,9.26-1.17,20.07-.27,29.14.55,5.61,6.22,8.9,10.16,12.56ZM70.14,125.61c4.04-3.88,10.6-7.8,11.17-13.57.88-8.89-1.21-18.23-1.28-27.12-2.72-2.99-5.92-7.72-9.89-8.79v49.48ZM109.52,85.22c-6.51.98-12.66.66-19.18.49l9.57,8.6c1.88.1,11.13-7.8,9.61-9.09ZM86.3,109.45c3.31-2.72,7.16-5.75,9.12-9.59,0-1.62-6.79-8.61-9.12-8.58v18.18ZM114.56,108.44l-1.5-17.16-8.57,8.58c1.32.95,8.81,10,10.07,8.58ZM109.52,114.5c-2.72-3.31-5.78-7.19-9.59-9.12-1.76,0-7.73,7.43-9.6,9.12h19.18Z"/>
    </g>
  </g>
</svg>