<?xml version="1.0" encoding="UTF-8"?>
<svg id="_Слой_1" data-name="Слой 1" xmlns="http://www.w3.org/2000/svg" viewBox="0 0 200 200">
  <g id="_Слой_38" data-name="Слой 38">
    <path d="M167.64,100c0,37.36-30.28,67.64-67.64,67.64s-67.64-30.28-67.64-67.64S62.64,32.36,100,32.36s67.64,30.28,67.64,67.64ZM98,97.38v-58.77c-1.73-1.89-7.47-.72-10.16-.27-28.03,4.72-50.78,31.56-50.26,60.13,1.53.65,3.28-1.09,3.84-1.09h56.58ZM102.39,97.38c15.9.43,31.93-.55,47.83-.04,3.31.11,8.77,2.44,11.55.64,2.02-1.31-1.41-14.63-2.32-17.56-7.84-25.38-30.76-41.93-57.06-43.46v60.42ZM98,102.88h-60.42c.95,33.02,27.79,58.66,60.42,60.42v-60.42ZM162.81,102.88h-60.42v60.42c33.31-1.94,57.7-27.58,60.42-60.42Z"/>
  </g>
</svg>